<?xml version="1.0" encoding="UTF-8" standalone="no"?>
<svg
   width="92"
   height="34"
   viewBox="0 0 92 34"
   fill="none"
   version="1.1"
   id="svg1"
   sodipodi:docname="croit.svg"
   inkscape:version="1.4.2 (ebf0e940d0, 2025-05-08)"
   xmlns:inkscape="http://www.inkscape.org/namespaces/inkscape"
   xmlns:sodipodi="http://sodipodi.sourceforge.net/DTD/sodipodi-0.dtd"
   xmlns="http://www.w3.org/2000/svg"
   xmlns:svg="http://www.w3.org/2000/svg">
  <defs
     id="defs1" />
  <sodipodi:namedview
     id="namedview1"
     pagecolor="#ffffff"
     bordercolor="#000000"
     borderopacity="0.25"
     inkscape:showpageshadow="2"
     inkscape:pageopacity="0.0"
     inkscape:pagecheckerboard="0"
     inkscape:deskcolor="#d1d1d1"
     inkscape:zoom="12.726804"
     inkscape:cx="42.74443"
     inkscape:cy="17.325637"
     inkscape:window-width="2560"
     inkscape:window-height="1532"
     inkscape:window-x="0"
     inkscape:window-y="0"
     inkscape:window-maximized="1"
     inkscape:current-layer="svg1" />
  <path
     d="M16.6852 20.7208C16.3573 19.6812 15.7452 18.8427 14.8516 18.2026C13.9568 17.5637 12.9424 17.245 11.8099 17.245C11.0943 17.245 10.4238 17.3786 9.79709 17.6457C9.17042 17.9129 8.62606 18.2766 8.16402 18.7369C7.70198 19.1972 7.33687 19.7328 7.06867 20.3412C6.80048 20.9509 6.66638 21.6109 6.66638 22.3238C6.66638 23.0366 6.80048 23.698 7.06867 24.3063C7.33687 24.9161 7.70198 25.4504 8.16402 25.9107C8.62606 26.3709 9.17042 26.7346 9.79709 27.0018C10.4238 27.269 11.0943 27.4025 11.8099 27.4025C12.9132 27.4025 13.905 27.0904 14.7853 26.4661C15.6642 25.8419 16.2683 25.0549 16.5962 24.104H23.4405C23.2321 25.4702 22.7847 26.7558 22.0982 27.958C21.4118 29.1616 20.5554 30.2078 19.5265 31.0992C18.4975 31.9906 17.3265 32.6969 16.0147 33.2154C14.7016 33.7351 13.3009 33.9957 11.8099 33.9957C10.1688 33.9957 8.63403 33.6902 7.20277 33.0818C5.77151 32.4734 4.51949 31.6415 3.44538 30.586C2.37127 29.5319 1.52951 28.2993 0.91744 26.8881C0.305371 25.4768 0 23.9691 0 22.3648C0 20.7605 0.305371 19.2461 0.91744 17.819C1.52818 16.3932 2.37127 15.1447 3.44538 14.0761C4.51949 13.0061 5.77151 12.1675 7.20277 11.5578C8.63403 10.9494 10.1702 10.6439 11.8099 10.6439C13.3009 10.6439 14.7096 10.9045 16.0373 11.4242C17.3637 11.944 18.5427 12.6503 19.5716 13.5404C20.6006 14.4318 21.457 15.4939 22.1434 16.7265C22.8285 17.9592 23.2613 19.2884 23.4405 20.7142H16.6852V20.7208ZM33.1912 33.4653H26.5261V19.7857C26.5261 18.479 26.7346 17.2979 27.1528 16.2425C27.5697 15.1884 28.1592 14.289 28.92 13.547C29.6807 12.805 30.5968 12.2257 31.6709 11.8091C32.745 11.3938 33.9227 11.1849 35.2053 11.1849H37.9788V17.1114H35.9209C35.1163 17.1114 34.4591 17.364 33.9533 17.8693C33.4461 18.3745 33.1925 19.0279 33.1925 19.8294V33.4653H33.1912ZM39.4991 22.3687C39.4991 20.7644 39.8044 19.2501 40.4165 17.823C41.0272 16.3972 41.8703 15.1487 42.9444 14.08C44.0185 13.01 45.2706 12.1715 46.7018 11.5618C48.1331 10.9534 49.6692 10.6479 51.3089 10.6479C52.9487 10.6479 54.4397 10.9534 55.8722 11.5618C57.3035 12.1715 58.5555 13.01 59.6296 14.08C60.7037 15.15 61.5455 16.3972 62.1576 17.823C62.7683 19.2487 63.075 20.7644 63.075 22.3687C63.075 23.9731 62.7683 25.4808 62.1576 26.892C61.5455 28.3032 60.7037 29.5359 59.6296 30.59C58.5555 31.6454 57.3035 32.4773 55.8722 33.0857C54.441 33.6941 52.9194 33.9997 51.3089 33.9997C49.6984 33.9997 48.1331 33.6941 46.7018 33.0857C45.2706 32.4773 44.0185 31.6454 42.9444 30.59C41.8703 29.5359 41.0286 28.3032 40.4165 26.892C39.8044 25.4808 39.4991 23.9731 39.4991 22.3687ZM46.1641 22.3251C46.1641 23.038 46.2982 23.6993 46.5664 24.3077C46.8346 24.9174 47.1997 25.4517 47.6631 25.912C48.1251 26.3722 48.6695 26.736 49.2962 27.0031C49.9228 27.2703 50.5933 27.4039 51.3089 27.4039C52.0246 27.4039 52.6884 27.2703 53.2992 27.0031C53.9099 26.736 54.4543 26.3722 54.9322 25.912C55.4089 25.4517 55.782 24.9174 56.0502 24.3077C56.3184 23.6993 56.4525 23.038 56.4525 22.3251C56.4525 21.6122 56.3184 20.9509 56.0502 20.3425C55.782 19.7341 55.4089 19.1998 54.9322 18.7382C54.4543 18.2779 53.9099 17.9142 53.2992 17.6471C52.6871 17.3799 52.0246 17.2463 51.3089 17.2463C50.5933 17.2463 49.9215 17.3799 49.2962 17.6471C48.6695 17.9142 48.1251 18.2779 47.6631 18.7382C47.1997 19.1985 46.8359 19.7341 46.5664 20.3425C46.2982 20.9522 46.1641 21.6122 46.1641 22.3251ZM66.1593 3.83254C66.1593 2.76256 66.5323 1.85658 67.2772 1.1146C68.022 0.372626 68.9328 0.000976562 70.0056 0.000976562C71.0784 0.000976562 71.9958 0.372626 72.7566 1.1146C73.5174 1.8579 73.8971 2.76388 73.8971 3.83254C73.8971 4.9012 73.5174 5.8085 72.7566 6.55048C71.9958 7.29378 71.0797 7.6641 70.0056 7.6641C68.9315 7.6641 68.022 7.29245 67.2772 6.55048C66.531 5.8085 66.1593 4.9012 66.1593 3.83254ZM66.7408 33.4653V11.1849H73.3607V33.4653H66.7408ZM79.4004 11.1849V3.96612H86.0655V11.1849H90.7629V17.1114H86.0655V24.8208C86.0655 25.6223 86.3191 26.277 86.8262 26.7809C87.3334 27.2862 87.9893 27.5388 88.7952 27.5388H91.1213V33.4653H88.0796C86.797 33.4653 85.6194 33.2577 84.5452 32.8411C83.4711 32.4258 82.555 31.8465 81.7943 31.1032C81.0335 30.3612 80.444 29.4539 80.0271 28.3852C79.6089 27.3153 79.4004 26.1421 79.4004 24.8645V17.1114H76.2697V11.1849H79.4004Z"
     fill="white"
     id="path1"
     style="fill:#000000;fill-opacity:1" />
</svg>
