<?xml version="1.0" encoding="UTF-8" standalone="no"?>
<!-- Created with Inkscape (http://www.inkscape.org/) -->

<svg
   version="1.1"
   id="svg2"
   width="226.772"
   height="264.56668"
   viewBox="0 0 226.772 264.56668"
   xmlns="http://www.w3.org/2000/svg"
   xmlns:svg="http://www.w3.org/2000/svg">
  <defs
     id="defs6">
    <clipPath
       clipPathUnits="userSpaceOnUse"
       id="clipPath16">
      <path
         d="M 0,0 H 170.079 V 198.425 H 0 Z"
         id="path14" />
    </clipPath>
  </defs>
  <g
     id="g8"
     transform="matrix(1.3333333,0,0,-1.3333333,0,264.56667)">
    <g
       id="g10">
      <g
         id="g12"
         clip-path="url(#clipPath16)">
        <g
           id="g18"
           transform="translate(151.1159,119.0087)">
          <path
             d="m 0,0 c 0.007,2.118 -1.704,3.841 -3.823,3.848 l -17.045,0.057 c -2.118,0.007 -3.841,-1.705 -3.848,-3.823 -0.007,-2.118 1.704,-3.841 3.823,-3.848 L -3.848,-3.823 C -1.73,-3.83 -0.007,-2.118 0,0 m -24.777,-19.093 c -0.007,-2.119 1.704,-3.842 3.823,-3.848 l 17.045,-0.057 c 2.118,-0.007 3.841,1.704 3.848,3.822 0.007,2.119 -1.705,3.842 -3.823,3.849 l -17.045,0.057 c -2.118,0.006 -3.841,-1.705 -3.848,-3.823 m -0.069,-19.176 c -0.007,-2.118 1.705,-3.841 3.823,-3.848 l 17.045,-0.057 c 2.118,-0.007 3.841,1.705 3.848,3.823 0.007,2.118 -1.705,3.841 -3.823,3.848 l -17.045,0.057 c -2.118,0.007 -3.841,-1.705 -3.848,-3.823 m -0.061,-19.183 c -0.007,-2.119 1.704,-3.842 3.823,-3.848 l 17.045,-0.057 c 2.118,-0.007 3.841,1.705 3.848,3.823 0.007,2.118 -1.704,3.841 -3.823,3.848 l -17.045,0.057 c -2.118,0.007 -3.841,-1.705 -3.848,-3.823 m -0.061,-19.168 c -0.007,-2.118 1.705,-3.841 3.823,-3.848 L -4.1,-80.525 c 2.118,-0.007 3.841,1.705 3.848,3.823 0.007,2.118 -1.705,3.841 -3.823,3.848 l -17.045,0.057 c -2.118,0.007 -3.841,-1.705 -3.848,-3.823 m -5.143,-29.861 v 17.045 c 0,2.118 -1.717,3.836 -3.835,3.836 -2.119,0 -3.836,-1.718 -3.836,-3.836 v -17.045 c 0,-2.118 1.717,-3.836 3.836,-3.836 2.118,0 3.835,1.718 3.835,3.836 m 0,35.264 v 66.186 c 0,5.025 -4.073,9.098 -9.098,9.098 h -66.186 c -5.024,0 -9.098,-4.073 -9.098,-9.098 v -66.186 c 0,-5.025 4.074,-9.098 9.098,-9.098 h 66.186 c 5.025,0 9.098,4.073 9.098,9.098 m -58.571,0.215 h -12.6 v 65.757 h 12.6 z m 22.68,0 h -12.6 v 65.757 h 12.6 z m 22.68,0 h -12.6 v 65.757 h 12.6 z m -71.171,-18.434 v -17.045 c 0,-2.118 1.718,-3.836 3.836,-3.836 2.118,0 3.835,1.718 3.835,3.836 v 17.045 c 0,2.118 -1.717,3.836 -3.835,3.836 -2.118,0 -3.836,-1.718 -3.836,-3.836 m -5.171,89.833 c 0.008,2.119 -1.704,3.841 -3.822,3.848 l -17.045,0.057 c -2.119,0.007 -3.842,-1.705 -3.849,-3.823 -0.007,-2.118 1.705,-3.841 3.823,-3.848 l 17.045,-0.057 c 2.118,-0.007 3.841,1.705 3.848,3.823 m -24.785,-19.094 c -0.007,-2.118 1.705,-3.841 3.823,-3.848 l 17.045,-0.056 c 2.119,-0.007 3.842,1.704 3.849,3.823 0.007,2.118 -1.705,3.841 -3.823,3.848 l -17.046,0.056 c -2.118,0.007 -3.841,-1.704 -3.848,-3.823 m -0.061,-19.183 c -0.007,-2.118 1.705,-3.841 3.823,-3.848 l 17.045,-0.057 c 2.119,-0.006 3.841,1.705 3.848,3.823 0.008,2.119 -1.704,3.842 -3.822,3.849 l -17.045,0.056 c -2.119,0.007 -3.841,-1.704 -3.849,-3.823 m -0.061,-19.175 c -0.007,-2.119 1.705,-3.841 3.823,-3.848 l 17.045,-0.057 c 2.118,-0.007 3.842,1.704 3.849,3.823 0.007,2.118 -1.705,3.841 -3.823,3.848 l -17.045,0.057 c -2.119,0.007 -3.842,-1.705 -3.849,-3.823 m -0.069,-19.176 c -0.007,-2.118 1.705,-3.841 3.823,-3.848 l 17.045,-0.057 c 2.119,-0.007 3.842,1.705 3.849,3.823 0.007,2.118 -1.705,3.841 -3.823,3.848 l -17.045,0.057 c -2.118,0.007 -3.841,-1.704 -3.849,-3.823 m 49.325,-13.205 v -17.045 c 0,-2.118 1.717,-3.836 3.836,-3.836 2.118,0 3.835,1.718 3.835,3.836 v 17.045 c 0,2.118 -1.717,3.836 -3.835,3.836 -2.119,0 -3.836,-1.718 -3.836,-3.836 m 19.178,0 v -17.045 c 0,-2.118 1.717,-3.836 3.835,-3.836 2.119,0 3.836,1.718 3.836,3.836 v 17.045 c 0,2.118 -1.717,3.836 -3.836,3.836 -2.118,0 -3.835,-1.718 -3.835,-3.836 m 19.178,0 v -17.045 c 0,-2.118 1.717,-3.836 3.835,-3.836 2.118,0 3.836,1.718 3.836,3.836 v 17.045 c 0,2.118 -1.718,3.836 -3.836,3.836 -2.118,0 -3.835,-1.718 -3.835,-3.836"
             style="fill:#0b3b6a;fill-opacity:1;fill-rule:nonzero;stroke:none"
             id="path20" />
        </g>
        <g
           id="g22"
           transform="translate(163.4335,174.2251)">
          <path
             d="m 0,0 c 0.091,0.143 0.117,0.312 0.117,0.468 0,0.416 -0.234,0.663 -0.442,0.767 -0.182,0.078 -0.39,0.091 -0.611,0.091 H -5.512 C -5.811,1.313 -6.149,1.313 -6.383,1.04 -6.578,0.806 -6.591,0.494 -6.591,0.247 v -6.981 c 0,-0.325 0,-0.91 0.624,-1.092 0.143,-0.039 0.299,-0.039 0.468,-0.039 h 4.602 c 0.208,0 0.403,0 0.585,0.078 0.195,0.078 0.481,0.312 0.481,0.754 0,0.117 -0.026,0.26 -0.104,0.403 -0.221,0.429 -0.611,0.429 -0.962,0.442 h -3.64 v 2.327 h 3.263 c 0.195,0 0.377,0 0.559,0.065 0.325,0.13 0.494,0.403 0.494,0.754 0,0.468 -0.325,0.676 -0.494,0.741 -0.182,0.078 -0.377,0.078 -0.572,0.078 h -3.25 v 1.859 h 3.601 c 0.325,0 0.702,0.013 0.936,0.364 m -9.932,-3.614 c -0.156,0.078 -0.338,0.13 -0.507,0.169 0.182,0.039 0.351,0.091 0.507,0.156 0.871,0.351 1.222,1.196 1.222,2.145 0,0.286 -0.013,1.183 -0.819,1.833 -0.728,0.598 -1.651,0.624 -2.548,0.637 h -2.587 c -0.312,0 -0.754,0 -1.053,-0.312 -0.286,-0.286 -0.299,-0.715 -0.299,-1.053 v -6.656 c 0,-0.364 0.013,-0.975 0.624,-1.209 0.13,-0.039 0.26,-0.065 0.416,-0.065 0.156,0 0.546,0.013 0.806,0.377 0.195,0.273 0.208,0.611 0.208,0.897 v 2.223 h 1.417 c 0.91,-0.013 1.3,-0.117 1.469,-1.17 0.039,-0.221 0.065,-0.442 0.091,-0.65 0.104,-0.702 0.26,-1.677 1.326,-1.677 0.624,0 0.949,0.429 0.949,0.845 0,0.039 0,0.13 -0.052,0.286 -0.026,0.104 -0.078,0.208 -0.117,0.312 -0.052,0.156 -0.078,0.325 -0.104,0.481 -0.039,0.247 -0.065,0.481 -0.104,0.715 -0.13,0.819 -0.273,1.417 -0.845,1.716 m -0.793,2.067 c 0,-0.507 -0.221,-0.858 -0.533,-1.04 -0.377,-0.234 -0.832,-0.234 -1.248,-0.234 h -1.456 v 2.431 h 1.482 c 0.676,0 1.183,-0.026 1.508,-0.39 0.234,-0.273 0.247,-0.611 0.247,-0.767 m -8.645,-5.59 c 0.767,0.78 0.78,1.742 0.78,2.548 v 4.693 c 0,0.377 -0.013,1.313 -1.027,1.313 -0.117,0 -0.416,-0.013 -0.663,-0.234 -0.338,-0.286 -0.338,-0.65 -0.351,-1.001 v -4.576 c -0.013,-0.819 -0.052,-1.911 -1.664,-1.911 -1.651,0 -1.651,1.144 -1.651,1.846 v 4.628 c 0,0.273 -0.013,0.585 -0.221,0.871 -0.273,0.364 -0.663,0.377 -0.806,0.377 -0.442,0 -0.65,-0.195 -0.728,-0.273 C -25.987,0.858 -25.987,0.455 -26,0.13 v -4.628 c 0.013,-1.04 0.026,-2.483 1.638,-3.172 0.702,-0.299 1.547,-0.377 2.184,-0.377 1.027,0 2.08,0.195 2.808,0.91 m -8.229,7.618 c 0,0.13 -0.026,0.273 -0.104,0.403 -0.234,0.416 -0.637,0.429 -0.949,0.429 H -34.06 C -34.372,1.3 -34.749,1.3 -34.983,0.923 -35.061,0.78 -35.1,0.624 -35.1,0.455 c 0,-0.832 0.754,-0.832 1.079,-0.832 h 1.638 v -6.305 c 0,-0.325 -0.013,-0.702 0.286,-1.001 0.143,-0.143 0.39,-0.286 0.767,-0.286 0.585,0 0.884,0.364 0.962,0.793 0.026,0.156 0.026,0.312 0.026,0.481 v 6.318 h 1.651 c 0.234,0 0.429,0 0.611,0.078 0.221,0.104 0.481,0.351 0.481,0.78 m -1.497,9.905 c -0.156,0.078 -0.338,0.13 -0.507,0.169 0.182,0.039 0.351,0.091 0.507,0.156 0.871,0.351 1.222,1.196 1.222,2.145 0,0.286 -0.013,1.183 -0.819,1.833 -0.728,0.598 -1.651,0.624 -2.548,0.637 h -2.587 c -0.312,0 -0.754,0 -1.053,-0.312 -0.286,-0.286 -0.299,-0.715 -0.299,-1.053 V 7.305 c 0,-0.364 0.013,-0.975 0.624,-1.209 0.13,-0.039 0.26,-0.065 0.416,-0.065 0.156,0 0.546,0.013 0.806,0.377 0.195,0.273 0.208,0.611 0.208,0.897 v 2.223 h 1.417 c 0.91,-0.013 1.3,-0.117 1.469,-1.17 0.039,-0.221 0.065,-0.442 0.091,-0.65 0.104,-0.702 0.26,-1.677 1.326,-1.677 0.624,0 0.949,0.429 0.949,0.845 0,0.039 0,0.13 -0.052,0.286 -0.026,0.104 -0.078,0.208 -0.117,0.312 -0.052,0.156 -0.078,0.325 -0.104,0.481 -0.039,0.247 -0.065,0.481 -0.104,0.715 -0.13,0.819 -0.273,1.417 -0.845,1.716 m -0.793,2.067 c 0,-0.507 -0.221,-0.858 -0.533,-1.04 -0.377,-0.234 -0.832,-0.234 -1.248,-0.234 h -1.456 v 2.431 h 1.482 c 0.676,0 1.183,-0.026 1.508,-0.39 0.234,-0.273 0.247,-0.611 0.247,-0.767 M -42.031,-3.315 c 0,1.066 0.299,3.107 2.366,3.107 1.001,0 1.404,-0.442 1.573,-0.65 0.104,-0.104 0.182,-0.208 0.286,-0.312 0.091,-0.104 0.325,-0.377 0.715,-0.377 0.429,0 0.949,0.364 0.949,0.962 0,0.741 -0.936,1.469 -1.69,1.768 -0.494,0.195 -1.157,0.325 -1.872,0.325 -2.886,0 -4.524,-2.132 -4.524,-4.745 0,-2.158 1.053,-3.549 2.171,-4.212 0.39,-0.234 1.053,-0.585 2.405,-0.585 0.858,0 1.95,0.13 2.912,0.975 0.286,0.247 0.572,0.598 0.715,0.949 0.078,0.221 0.091,0.39 0.091,0.481 0,0.637 -0.585,0.949 -1.04,0.949 -0.377,0 -0.572,-0.208 -0.676,-0.364 -0.091,-0.13 -0.156,-0.273 -0.234,-0.403 -0.312,-0.494 -0.91,-0.884 -1.755,-0.884 -1.313,0 -2.392,0.936 -2.392,3.016 m 0.247,11.127 v 2.327 h 3.263 c 0.195,0 0.377,0 0.559,0.065 0.325,0.13 0.494,0.403 0.494,0.754 0,0.468 -0.325,0.676 -0.494,0.741 -0.182,0.078 -0.377,0.078 -0.572,0.078 h -3.25 v 1.859 h 3.601 c 0.325,0 0.702,0.013 0.936,0.364 0.091,0.143 0.117,0.312 0.117,0.468 0,0.416 -0.234,0.663 -0.442,0.767 -0.182,0.078 -0.39,0.091 -0.611,0.091 h -4.576 c -0.299,-0.013 -0.637,-0.013 -0.871,-0.286 -0.195,-0.234 -0.208,-0.546 -0.208,-0.793 V 7.266 c 0,-0.325 0,-0.91 0.624,-1.092 0.143,-0.039 0.299,-0.039 0.468,-0.039 h 4.602 c 0.208,0 0.403,0 0.585,0.078 0.195,0.078 0.481,0.312 0.481,0.754 0,0.117 -0.026,0.26 -0.104,0.403 -0.221,0.429 -0.611,0.429 -0.962,0.442 z m -3.614,6.669 c 0,0.13 -0.026,0.273 -0.104,0.403 -0.234,0.416 -0.637,0.429 -0.949,0.429 h -5.408 c -0.312,-0.013 -0.689,-0.013 -0.923,-0.39 -0.078,-0.143 -0.117,-0.299 -0.117,-0.468 0,-0.832 0.754,-0.832 1.079,-0.832 h 1.638 V 7.318 c 0,-0.325 -0.013,-0.702 0.286,-1.001 0.143,-0.143 0.39,-0.286 0.767,-0.286 0.585,0 0.884,0.364 0.962,0.793 0.026,0.156 0.026,0.312 0.026,0.481 v 6.318 h 1.651 c 0.234,0 0.429,0 0.611,0.078 0.221,0.104 0.481,0.351 0.481,0.78 m -8.658,-14 c 0,0.13 -0.026,0.273 -0.104,0.403 -0.234,0.416 -0.637,0.429 -0.949,0.429 h -5.408 C -60.829,1.3 -61.206,1.3 -61.44,0.923 -61.518,0.78 -61.557,0.624 -61.557,0.455 c 0,-0.832 0.754,-0.832 1.079,-0.832 h 1.638 v -6.305 c 0,-0.325 -0.013,-0.702 0.286,-1.001 0.143,-0.143 0.39,-0.286 0.767,-0.286 0.585,0 0.884,0.364 0.962,0.793 0.026,0.156 0.026,0.312 0.026,0.481 v 6.318 h 1.651 c 0.234,0 0.429,0 0.611,0.078 0.221,0.104 0.481,0.351 0.481,0.78 m -1.196,6.382 c 0.767,0.78 0.78,1.742 0.78,2.548 v 4.693 c 0,0.377 -0.013,1.313 -1.027,1.313 -0.117,0 -0.416,-0.013 -0.663,-0.234 -0.338,-0.286 -0.338,-0.65 -0.351,-1.001 V 9.606 c -0.013,-0.819 -0.052,-1.911 -1.664,-1.911 -1.651,0 -1.651,1.144 -1.651,1.846 v 4.628 c 0,0.273 -0.013,0.585 -0.221,0.871 -0.273,0.364 -0.663,0.377 -0.806,0.377 -0.442,0 -0.65,-0.195 -0.728,-0.273 -0.286,-0.286 -0.286,-0.689 -0.299,-1.014 V 9.502 c 0.013,-1.04 0.026,-2.483 1.638,-3.172 0.702,-0.299 1.547,-0.377 2.184,-0.377 1.027,0 2.08,0.195 2.808,0.91 m -7.839,-13.402 v 6.617 c 0,0.299 0,0.676 -0.247,0.988 -0.273,0.351 -0.65,0.364 -0.793,0.364 -0.156,0 -0.468,-0.026 -0.715,-0.273 -0.312,-0.299 -0.325,-0.689 -0.325,-1.04 v -6.669 c 0,-0.338 0,-0.754 0.26,-1.066 0.273,-0.325 0.676,-0.325 0.793,-0.325 1.027,0 1.027,0.91 1.027,1.404 m -1.092,16.756 c 0.533,0.572 0.754,1.352 0.754,2.132 0,0.78 -0.234,1.547 -0.78,2.106 -0.793,0.819 -1.833,0.858 -2.639,0.858 h -2.275 c -0.429,0 -1.118,-0.013 -1.339,-0.728 -0.052,-0.195 -0.052,-0.403 -0.052,-0.611 V 7.37 c 0,-0.403 0,-1.027 0.637,-1.261 0.065,-0.026 0.182,-0.078 0.416,-0.078 0.195,0 0.533,0.039 0.767,0.351 0.221,0.299 0.221,0.65 0.221,0.962 v 1.963 h 1.43 c 0.949,0 2.028,0.013 2.86,0.91 m -1.3,2.119 c 0,-0.247 -0.052,-0.91 -0.715,-1.196 -0.364,-0.156 -0.78,-0.156 -1.144,-0.156 h -1.131 v 2.652 h 1.209 c 0.585,0 1.053,-0.013 1.404,-0.364 0.065,-0.065 0.377,-0.39 0.377,-0.936 m -7.579,-5.07 v 6.669 c 0,1.066 -0.286,1.508 -1.716,1.508 -1.092,0 -1.3,-0.481 -1.495,-1.222 l -0.702,-2.639 c -0.429,-1.742 -0.481,-1.963 -0.78,-3.393 -0.481,2.392 -0.546,2.626 -0.793,3.562 l -0.741,2.639 c -0.182,0.676 -0.364,1.053 -1.521,1.053 -0.286,0 -0.793,-0.013 -1.105,-0.195 -0.494,-0.312 -0.507,-0.897 -0.507,-1.261 V 7.292 c 0,-0.416 0.013,-1.235 0.936,-1.235 0.936,0 0.936,0.832 0.936,1.222 V 9.84 c -0.026,1.638 -0.039,2.002 -0.104,3.445 0.455,-2.028 0.494,-2.197 1.001,-4.108 l 0.611,-2.158 c 0.156,-0.546 0.325,-0.962 1.274,-0.962 1.001,0 1.17,0.429 1.326,0.949 l 0.637,2.327 c 0.429,1.573 0.572,2.119 0.975,3.952 -0.091,-2.132 -0.104,-2.366 -0.117,-3.276 v -2.73 c 0,-0.39 0.013,-1.222 0.975,-1.222 0.897,0 0.91,0.832 0.91,1.209 m -7.93,-5.758 c -2.886,0 -4.524,-2.132 -4.524,-4.745 0,-2.158 1.053,-3.549 2.171,-4.212 0.39,-0.234 1.053,-0.585 2.405,-0.585 0.858,0 1.95,0.13 2.912,0.975 0.286,0.247 0.572,0.598 0.715,0.949 0.078,0.221 0.091,0.39 0.091,0.481 0,0.637 -0.585,0.949 -1.04,0.949 -0.377,0 -0.572,-0.208 -0.676,-0.364 -0.091,-0.13 -0.156,-0.273 -0.234,-0.403 -0.312,-0.494 -0.91,-0.884 -1.755,-0.884 -1.313,0 -2.392,0.936 -2.392,3.016 0,1.066 0.299,3.107 2.366,3.107 1.001,0 1.404,-0.442 1.573,-0.65 0.104,-0.104 0.182,-0.208 0.286,-0.312 0.091,-0.104 0.325,-0.377 0.715,-0.377 0.429,0 0.949,0.364 0.949,0.962 0,0.741 -0.936,1.469 -1.69,1.768 -0.494,0.195 -1.157,0.325 -1.872,0.325 m -3.548,9.216 c 0,2.717 -1.664,4.771 -4.524,4.771 -3.042,0 -4.538,-2.236 -4.538,-4.771 0,-2.275 1.366,-4.784 4.433,-4.784 2.939,0 4.629,2.119 4.629,4.784 m -2.159,-0.013 c 0,-1.729 -0.819,-3.016 -2.378,-3.016 -1.989,0 -2.353,2.054 -2.353,3.081 0,1.573 0.793,2.977 2.366,2.977 0.533,0 1.066,-0.182 1.456,-0.533 0.909,-0.819 0.909,-2.106 0.909,-2.509 m -6.526,-9.385 c -0.311,0 -0.754,0 -1.052,-0.312 -0.286,-0.286 -0.299,-0.715 -0.299,-1.053 v -6.656 c 0,-0.364 0.013,-0.975 0.624,-1.209 0.13,-0.039 0.26,-0.065 0.416,-0.065 0.156,0 0.546,0.013 0.806,0.377 0.195,0.273 0.208,0.611 0.208,0.897 v 2.223 h 1.417 c 0.91,-0.013 1.3,-0.117 1.469,-1.17 0.039,-0.221 0.064,-0.442 0.09,-0.65 0.105,-0.702 0.261,-1.677 1.327,-1.677 0.624,0 0.949,0.429 0.949,0.845 0,0.039 0,0.13 -0.052,0.286 -0.026,0.104 -0.078,0.208 -0.117,0.312 -0.053,0.156 -0.079,0.325 -0.105,0.481 -0.038,0.247 -0.064,0.481 -0.103,0.715 -0.13,0.819 -0.274,1.417 -0.845,1.716 -0.156,0.078 -0.338,0.13 -0.507,0.169 0.182,0.039 0.351,0.091 0.507,0.156 0.871,0.351 1.222,1.196 1.222,2.145 0,0.286 -0.013,1.183 -0.819,1.833 -0.728,0.598 -1.651,0.624 -2.548,0.637 z m 0.703,-1.716 h 1.482 c 0.675,0 1.183,-0.026 1.507,-0.39 0.235,-0.273 0.248,-0.611 0.248,-0.767 0,-0.507 -0.222,-0.858 -0.533,-1.04 -0.377,-0.234 -0.832,-0.234 -1.248,-0.234 h -1.456 z m -8.879,11.075 c 0,1.066 0.299,3.107 2.366,3.107 1.001,0 1.404,-0.442 1.573,-0.65 0.104,-0.104 0.182,-0.208 0.286,-0.312 0.091,-0.104 0.325,-0.377 0.715,-0.377 0.429,0 0.949,0.364 0.949,0.962 0,0.741 -0.936,1.469 -1.69,1.768 -0.494,0.195 -1.157,0.325 -1.872,0.325 -2.886,0 -4.524,-2.132 -4.524,-4.745 0,-2.158 1.053,-3.549 2.171,-4.212 0.39,-0.234 1.053,-0.585 2.405,-0.585 0.858,0 1.95,0.13 2.912,0.975 0.286,0.247 0.572,0.598 0.715,0.949 0.078,0.221 0.091,0.39 0.091,0.481 0,0.637 -0.585,0.949 -1.04,0.949 -0.377,0 -0.572,-0.208 -0.676,-0.364 -0.091,-0.13 -0.156,-0.273 -0.234,-0.403 -0.312,-0.494 -0.91,-0.884 -1.755,-0.884 -1.313,0 -2.392,0.936 -2.392,3.016 m -0.169,-10.633 -2.236,-6.37 c -0.078,-0.221 -0.143,-0.442 -0.143,-0.676 0,-0.793 0.741,-0.975 1.105,-0.975 0.728,0 0.897,0.546 1.066,1.079 l 0.26,0.845 h 2.951 l 0.299,-1.001 c 0.156,-0.455 0.351,-0.923 1.04,-0.923 0.624,0 1.079,0.377 1.079,0.962 0,0.26 -0.065,0.494 -0.156,0.741 l -2.366,6.643 c -0.208,0.598 -0.429,1.027 -1.417,1.027 -0.988,0 -1.17,-0.455 -1.482,-1.352 m 0.533,-4.446 0.728,2.431 c 0.13,0.429 0.182,0.767 0.26,1.222 0.104,-0.572 0.143,-0.741 0.312,-1.417 l 0.676,-2.236 z m -2.87,-13.184 c -1.191,-0.873 -1.23,-2.223 -1.23,-3.294 v -20.52 c 0,-1.151 0.039,-2.58 1.429,-3.413 0.476,-0.278 1.071,-0.397 1.666,-0.397 0.596,0 2.104,0.079 2.779,1.746 0.278,0.714 0.317,1.469 0.317,2.223 v 8.176 h 9.208 c 0.953,0 3.374,0 3.374,2.5 0,0.397 -0.079,0.834 -0.278,1.191 -0.675,1.27 -2.064,1.27 -2.977,1.27 h -9.327 v 6.033 h 10.439 c 0.952,0 2.262,0 3.016,1.151 0.357,0.516 0.397,1.151 0.397,1.469 0,0.992 -0.476,1.825 -1.429,2.262 -0.595,0.238 -1.27,0.278 -1.905,0.278 h -12.423 c -0.952,0 -2.143,0 -3.056,-0.675 m -8.844,-23.735 v 20.957 c 0,1.151 -0.04,2.699 -1.508,3.453 -0.159,0.039 -0.636,0.278 -1.39,0.278 -1.032,0 -1.746,-0.437 -2.143,-0.874 -0.754,-0.793 -0.794,-1.905 -0.794,-2.778 v -11.232 c 0,-0.556 0.04,-1.111 0.04,-1.667 0,-0.556 0.04,-1.112 0.079,-1.667 l -9.446,15.915 c -0.913,1.548 -1.587,2.303 -3.85,2.303 -1.349,0 -2.461,-0.397 -3.135,-1.429 -0.516,-0.834 -0.516,-1.707 -0.516,-2.62 v -20.599 c 0,-1.032 0,-2.302 0.873,-3.175 0.159,-0.159 0.754,-0.794 2.024,-0.794 2.898,0 2.937,2.778 2.937,4.247 v 11.431 c 0,1.508 -0.039,1.746 -0.119,2.976 l 9.208,-15.677 c 1.111,-1.866 1.747,-2.977 3.93,-2.977 3.691,0 3.81,2.421 3.81,3.929 m -30.397,0.437 v 20.202 c 0,0.913 0,2.064 -0.754,3.017 -0.833,1.071 -1.984,1.111 -2.421,1.111 -0.476,0 -1.429,-0.079 -2.183,-0.834 -0.952,-0.912 -0.992,-2.103 -0.992,-3.175 v -20.361 c 0,-1.032 0,-2.302 0.794,-3.254 0.833,-0.993 2.064,-0.993 2.421,-0.993 3.135,0 3.135,2.779 3.135,4.287 m 64.294,23.496 c -0.953,-0.912 -0.992,-2.103 -0.992,-3.175 v -20.361 c 0,-1.032 0,-2.302 0.793,-3.254 0.834,-0.993 2.064,-0.993 2.421,-0.993 3.136,0 3.136,2.779 3.136,4.287 v 20.202 c 0,0.913 0,2.064 -0.754,3.017 -0.834,1.071 -1.985,1.111 -2.421,1.111 -0.477,0 -1.429,-0.079 -2.183,-0.834 m 5.766,10.698 v 2.769 h 3.315 v -2.743 c 0,-0.39 0.013,-1.027 0.663,-1.235 0.182,-0.065 0.325,-0.065 0.39,-0.065 0.117,0 0.52,0 0.793,0.364 0.221,0.299 0.221,0.676 0.221,0.988 V 0.13 c 0,0.364 -0.013,0.949 -0.585,1.196 -0.195,0.078 -0.377,0.078 -0.455,0.078 -0.494,0 -0.715,-0.247 -0.767,-0.299 -0.247,-0.286 -0.26,-0.65 -0.26,-0.975 v -2.327 h -3.315 v 2.236 c 0,0.325 0,0.689 -0.247,1.001 -0.182,0.234 -0.481,0.364 -0.78,0.364 -0.286,0 -0.559,-0.104 -0.741,-0.312 -0.286,-0.312 -0.299,-0.702 -0.299,-1.04 v -6.747 c 0,-0.299 0.013,-0.676 0.273,-0.962 0.156,-0.169 0.39,-0.299 0.767,-0.299 1.014,0 1.027,0.871 1.027,1.274 m 9.768,-10.698 c -0.953,-0.912 -0.993,-2.103 -0.993,-3.175 v -20.361 c 0,-1.032 0,-2.302 0.794,-3.254 0.834,-0.993 2.064,-0.993 2.421,-0.993 3.136,0 3.136,2.779 3.136,4.287 v 20.202 c 0,0.913 0,2.064 -0.754,3.017 -0.834,1.071 -1.985,1.111 -2.421,1.111 -0.477,0 -1.429,-0.079 -2.183,-0.834 m 11.032,18.42 c -0.195,-0.234 -0.208,-0.546 -0.208,-0.793 v -6.981 c 0,-0.325 0,-0.91 0.624,-1.092 0.143,-0.039 0.299,-0.039 0.468,-0.039 h 4.602 c 0.208,0 0.403,0 0.585,0.078 0.195,0.078 0.481,0.312 0.481,0.754 0,0.117 -0.026,0.26 -0.104,0.403 -0.221,0.429 -0.611,0.429 -0.962,0.442 h -3.64 v 2.327 h 3.263 c 0.195,0 0.377,0 0.559,0.065 0.325,0.13 0.494,0.403 0.494,0.754 0,0.468 -0.325,0.676 -0.494,0.741 -0.182,0.078 -0.377,0.078 -0.572,0.078 h -3.25 v 1.859 h 3.601 c 0.325,0 0.702,0.013 0.936,0.364 0.091,0.143 0.117,0.312 0.117,0.468 0,0.416 -0.234,0.663 -0.442,0.767 -0.182,0.078 -0.39,0.091 -0.611,0.091 h -4.576 C -51.716,1.313 -52.054,1.313 -52.288,1.04 m 4.502,-18.42 c -0.953,-0.912 -0.993,-2.103 -0.993,-3.175 v -20.361 c 0,-1.032 0,-2.302 0.794,-3.254 0.834,-0.993 2.064,-0.993 2.421,-0.993 3.136,0 3.136,2.779 3.136,4.287 v 20.202 c 0,0.913 0,2.064 -0.754,3.017 -0.834,1.071 -1.985,1.111 -2.421,1.111 -0.477,0 -1.429,-0.079 -2.183,-0.834"
             style="fill:#db1f26;fill-opacity:1;fill-rule:nonzero;stroke:none"
             id="path24" />
        </g>
      </g>
    </g>
  </g>
</svg>
