<?xml version="1.0" encoding="UTF-8" standalone="no"?>
<!-- Created with Inkscape (http://www.inkscape.org/) -->

<svg
   version="1.1"
   id="svg1"
   width="1205.2933"
   height="573.8667"
   viewBox="0 0 1205.2933 573.8667"
   sodipodi:docname="FAU_Logo_Vert.eps"
   xmlns:inkscape="http://www.inkscape.org/namespaces/inkscape"
   xmlns:sodipodi="http://sodipodi.sourceforge.net/DTD/sodipodi-0.dtd"
   xmlns="http://www.w3.org/2000/svg"
   xmlns:svg="http://www.w3.org/2000/svg">
  <defs
     id="defs1" />
  <sodipodi:namedview
     id="namedview1"
     pagecolor="#ffffff"
     bordercolor="#000000"
     borderopacity="0.25"
     inkscape:showpageshadow="2"
     inkscape:pageopacity="0.0"
     inkscape:pagecheckerboard="0"
     inkscape:deskcolor="#d1d1d1">
    <inkscape:page
       x="0"
       y="0"
       inkscape:label="1"
       id="page1"
       width="1205.2933"
       height="573.8667"
       margin="0"
       bleed="0" />
  </sodipodi:namedview>
  <g
     id="g1"
     inkscape:groupmode="layer"
     inkscape:label="1">
    <g
       id="group-R5">
      <path
         id="path2"
         d="M 730.27,1416.1 H 555.945 v -96.23 h 130.332 v -62.7 H 555.945 v -164.98 h -68.742 v 387.15 H 730.27 v -63.24"
         style="fill:#123165;fill-opacity:1;fill-rule:nonzero;stroke:none"
         transform="matrix(0.13333333,0,0,-0.13333333,0,573.86667)" />
      <path
         id="path3"
         d="m 937.027,1373.21 -10.449,-67.09 c -9.89,5.49 -21.992,8.79 -36.297,8.79 -45.09,0 -57.187,-36.29 -57.187,-79.18 v -143.54 h -65.442 v 279.91 h 64.336 v -35.2 h 1.106 c 14.844,26.41 41.238,42.34 73.144,42.34 9.344,0 20.887,-1.64 30.789,-6.03"
         style="fill:#123165;fill-opacity:1;fill-rule:nonzero;stroke:none"
         transform="matrix(0.13333333,0,0,-0.13333333,0,573.86667)" />
      <path
         id="path4"
         d="m 1057.75,1092.19 h -65.437 v 279.91 h 65.437 z m 8.8,364.59 c 0,-23.08 -18.7,-39.59 -41.8,-39.59 -22.55,0 -41.238,16.51 -41.238,39.59 0,22.56 18.688,39.61 41.238,39.61 23.1,0 41.8,-17.05 41.8,-39.61"
         style="fill:#123165;fill-opacity:1;fill-rule:nonzero;stroke:none"
         transform="matrix(0.13333333,0,0,-0.13333333,0,573.86667)" />
      <path
         id="path5"
         d="m 1192.13,1257.72 h 127.03 c -2.75,42.89 -25.3,67.64 -62.14,67.64 -36.3,0 -59.4,-24.2 -64.89,-67.64 z m 73.13,-172.13 c -83.04,0 -138.57,58.85 -138.57,147.39 0,86.89 53.34,146.26 131.42,146.26 75.34,0 124.29,-56.09 124.29,-142.42 0,-9.35 -0.55,-19.26 -1.1,-26.95 h -188.07 c 7.15,-43.44 32.99,-68.18 72.59,-68.18 25.84,0 46.73,9.9 68.74,32.98 l 40.69,-42.89 c -31.89,-31.34 -67.65,-46.19 -109.99,-46.19"
         style="fill:#123165;fill-opacity:1;fill-rule:nonzero;stroke:none"
         transform="matrix(0.13333333,0,0,-0.13333333,0,573.86667)" />
      <path
         id="path6"
         d="m 1504.19,1232.98 c 0,-57.19 23.65,-89.65 64.89,-89.65 25.3,0 46.19,12.11 66.54,36.85 v 102.29 c -18.7,25.29 -40.15,37.4 -66.54,37.4 -42.35,0 -64.89,-30.8 -64.89,-86.89 z m -64.9,0 c 0,90.17 45.65,146.26 113.84,146.26 35.2,0 62.7,-14.84 81.39,-37.93 h 1.1 v 143.52 l 65.44,16.5 v -409.14 h -63.79 v 32.99 h -1.1 c -20.34,-24.74 -49.49,-39.59 -84.14,-39.59 -66.54,0 -112.74,56.64 -112.74,147.39"
         style="fill:#123165;fill-opacity:1;fill-rule:nonzero;stroke:none"
         transform="matrix(0.13333333,0,0,-0.13333333,0,573.86667)" />
      <path
         id="path7"
         d="m 1955.66,1373.21 -10.45,-67.09 c -9.89,5.49 -21.99,8.79 -36.3,8.79 -45.09,0 -57.19,-36.29 -57.19,-79.18 v -143.54 h -65.43 v 279.91 h 64.33 v -35.2 h 1.1 c 14.85,26.41 41.25,42.34 73.15,42.34 9.35,0 20.89,-1.64 30.79,-6.03"
         style="fill:#123165;fill-opacity:1;fill-rule:nonzero;stroke:none"
         transform="matrix(0.13333333,0,0,-0.13333333,0,573.86667)" />
      <path
         id="path8"
         d="m 2076.39,1092.19 h -65.44 v 279.91 h 65.44 z m 8.8,364.59 c 0,-23.08 -18.7,-39.59 -41.8,-39.59 -22.54,0 -41.24,16.51 -41.24,39.59 0,22.56 18.7,39.61 41.24,39.61 23.1,0 41.8,-17.05 41.8,-39.61"
         style="fill:#123165;fill-opacity:1;fill-rule:nonzero;stroke:none"
         transform="matrix(0.13333333,0,0,-0.13333333,0,573.86667)" />
      <path
         id="path9"
         d="m 2380.85,1130.69 c -28.05,-30.8 -59.95,-45.1 -100.09,-45.1 -80.29,0 -134.18,57.74 -134.18,145.72 0,87.99 54.44,147.93 135.28,147.93 41.79,0 76.44,-16.48 100.64,-47.83 l -45.1,-42.89 c -16.5,21.45 -34.09,30.78 -56.1,30.78 -41.24,0 -69.28,-34.08 -69.28,-86.87 0,-52.25 28.04,-87.44 68.74,-87.44 21.99,0 39.59,9.9 57.74,30.8 l 42.35,-45.1"
         style="fill:#123165;fill-opacity:1;fill-rule:nonzero;stroke:none"
         transform="matrix(0.13333333,0,0,-0.13333333,0,573.86667)" />
      <path
         id="path10"
         d="m 2679.48,1092.19 h -65.44 v 160.02 c 0,41.25 -12.65,68.21 -51.7,68.21 -45.09,0 -58.29,-35.75 -58.29,-67.66 v -160.57 h -65.44 v 392.64 l 65.44,16.5 v -162.77 h 1.1 c 15.95,24.75 45.1,40.68 81.95,40.68 64.88,0 92.38,-48.37 92.38,-113.28 v -173.77"
         style="fill:#123165;fill-opacity:1;fill-rule:nonzero;stroke:none"
         transform="matrix(0.13333333,0,0,-0.13333333,0,573.86667)" />
      <path
         id="path11"
         d="m 2892.07,1232.98 h -137.48 v 62.14 h 137.48 v -62.14"
         style="fill:#123165;fill-opacity:1;fill-rule:nonzero;stroke:none"
         transform="matrix(0.13333333,0,0,-0.13333333,0,573.86667)" />
      <path
         id="path12"
         d="m 3048.38,1236.28 h 113.28 l -56.1,164.43 h -1.1 z m 21.44,243.06 h 72.59 l 144.08,-387.15 h -75.34 l -28.05,82.48 h -156.18 l -28.05,-82.48 h -73.13 l 144.08,387.15"
         style="fill:#123165;fill-opacity:1;fill-rule:nonzero;stroke:none"
         transform="matrix(0.13333333,0,0,-0.13333333,0,573.86667)" />
      <path
         id="path13"
         d="m 3409.34,1092.19 h -65.44 v 393.75 l 65.44,14.85 v -408.6"
         style="fill:#123165;fill-opacity:1;fill-rule:nonzero;stroke:none"
         transform="matrix(0.13333333,0,0,-0.13333333,0,573.86667)" />
      <path
         id="path14"
         d="m 3545.74,1257.72 h 127.03 c -2.74,42.89 -25.29,67.64 -62.14,67.64 -36.3,0 -59.39,-24.2 -64.89,-67.64 z m 73.13,-172.13 c -83.03,0 -138.57,58.85 -138.57,147.39 0,86.89 53.34,146.26 131.42,146.26 75.35,0 124.29,-56.09 124.29,-142.42 0,-9.35 -0.54,-19.26 -1.1,-26.95 h -188.07 c 7.15,-43.44 32.99,-68.18 72.59,-68.18 25.84,0 46.74,9.9 68.74,32.98 l 40.69,-42.89 c -31.89,-31.34 -67.64,-46.19 -109.99,-46.19"
         style="fill:#123165;fill-opacity:1;fill-rule:nonzero;stroke:none"
         transform="matrix(0.13333333,0,0,-0.13333333,0,573.86667)" />
      <path
         id="path15"
         d="m 4038.56,1092.19 h -74.79 l -59.95,96.78 h -1.09 l -58.3,-96.78 h -73.68 l 95.68,145.18 -88.53,134.73 h 73.69 l 52.79,-85.79 h 1.09 l 52.25,85.79 h 72.59 l -87.99,-133.64 96.24,-146.27"
         style="fill:#123165;fill-opacity:1;fill-rule:nonzero;stroke:none"
         transform="matrix(0.13333333,0,0,-0.13333333,0,573.86667)" />
      <path
         id="path16"
         d="m 4182.23,1134.54 c 23.65,0 45.65,11.54 63.79,33.53 v 48.95 c -15.4,3.85 -31.35,5.51 -45.64,5.51 -41.24,0 -64.9,-16.51 -64.9,-46.2 0,-25.85 18.16,-41.79 46.75,-41.79 z m 11,131.42 c 18.14,0 34.65,-1.09 52.79,-6.03 v 9.88 c 0,35.74 -20.9,54.45 -61.59,54.45 -22.55,0 -47.84,-5.5 -70.94,-15.95 l -14.29,55 c 25.84,9.9 59.94,15.93 91.83,15.93 78.64,0 119.34,-36.83 119.34,-108.32 v -178.73 h -62.15 v 29.69 h -1.09 c -24.2,-24.74 -49.5,-36.29 -81.95,-36.29 -56.09,0 -92.38,34.65 -92.38,89.08 0,59.4 42.34,91.29 120.43,91.29"
         style="fill:#123165;fill-opacity:1;fill-rule:nonzero;stroke:none"
         transform="matrix(0.13333333,0,0,-0.13333333,0,573.86667)" />
      <path
         id="path17"
         d="m 4634.21,1092.19 h -65.45 v 160.02 c 0,40.71 -12.09,68.21 -51.69,68.21 -45.65,0 -58.29,-37.41 -58.29,-67.66 v -160.57 h -65.44 v 279.91 h 64.89 v -33.54 h 1.09 c 16.51,24.75 46.2,40.68 82.49,40.68 63.79,0 92.4,-46.73 92.4,-113.28 v -173.77"
         style="fill:#123165;fill-opacity:1;fill-rule:nonzero;stroke:none"
         transform="matrix(0.13333333,0,0,-0.13333333,0,573.86667)" />
      <path
         id="path18"
         d="m 4768.32,1232.98 c 0,-57.19 23.65,-89.65 64.89,-89.65 25.29,0 46.19,12.11 66.54,36.85 v 102.29 c -18.7,25.29 -40.14,37.4 -66.54,37.4 -42.34,0 -64.89,-30.8 -64.89,-86.89 z m -64.9,0 c 0,90.17 45.65,146.26 113.84,146.26 35.2,0 62.7,-14.84 81.39,-37.93 h 1.1 v 143.52 l 65.44,16.5 v -409.14 h -63.79 v 32.99 h -1.1 c -20.34,-24.74 -49.49,-39.59 -84.14,-39.59 -66.53,0 -112.74,56.64 -112.74,147.39"
         style="fill:#123165;fill-opacity:1;fill-rule:nonzero;stroke:none"
         transform="matrix(0.13333333,0,0,-0.13333333,0,573.86667)" />
      <path
         id="path19"
         d="m 5101.67,1257.72 h 127.03 c -2.76,42.89 -25.3,67.64 -62.14,67.64 -36.3,0 -59.4,-24.2 -64.89,-67.64 z m 73.13,-172.13 c -83.04,0 -138.57,58.85 -138.57,147.39 0,86.89 53.34,146.26 131.42,146.26 75.34,0 124.29,-56.09 124.29,-142.42 0,-9.35 -0.55,-19.26 -1.1,-26.95 h -188.08 c 7.16,-43.44 33,-68.18 72.6,-68.18 25.84,0 46.74,9.9 68.74,32.98 l 40.69,-42.89 c -31.89,-31.34 -67.64,-46.19 -109.99,-46.19"
         style="fill:#123165;fill-opacity:1;fill-rule:nonzero;stroke:none"
         transform="matrix(0.13333333,0,0,-0.13333333,0,573.86667)" />
      <path
         id="path20"
         d="m 5532.79,1373.21 -10.45,-67.09 c -9.89,5.49 -21.99,8.79 -36.3,8.79 -45.09,0 -57.19,-36.29 -57.19,-79.18 v -143.54 h -65.44 v 279.91 h 64.34 v -35.2 h 1.1 c 14.85,26.41 41.24,42.34 73.15,42.34 9.34,0 20.89,-1.64 30.79,-6.03"
         style="fill:#123165;fill-opacity:1;fill-rule:nonzero;stroke:none"
         transform="matrix(0.13333333,0,0,-0.13333333,0,573.86667)" />
      <path
         id="path21"
         d="M 5710.98,1232.98 H 5573.5 v 62.14 h 137.48 v -62.14"
         style="fill:#123165;fill-opacity:1;fill-rule:nonzero;stroke:none"
         transform="matrix(0.13333333,0,0,-0.13333333,0,573.86667)" />
      <path
         id="path22"
         d="m 6096.94,1245.61 c 0,-93.47 -47.84,-160.02 -151.78,-160.02 -103.39,0 -150.68,66 -150.68,160.02 v 233.73 h 70.39 v -229.86 c 0,-58.3 25.3,-97.89 82.49,-97.89 57.2,0 79.75,39.04 79.75,97.89 v 229.86 h 69.83 v -233.73"
         style="fill:#123165;fill-opacity:1;fill-rule:nonzero;stroke:none"
         transform="matrix(0.13333333,0,0,-0.13333333,0,573.86667)" />
      <path
         id="path23"
         d="m 6424.7,1092.19 h -65.44 v 160.02 c 0,40.71 -12.1,68.21 -51.7,68.21 -45.64,0 -58.29,-37.41 -58.29,-67.66 v -160.57 h -65.44 v 279.91 h 64.9 v -33.54 h 1.09 c 16.5,24.75 46.2,40.68 82.49,40.68 63.79,0 92.39,-46.73 92.39,-113.28 v -173.77"
         style="fill:#123165;fill-opacity:1;fill-rule:nonzero;stroke:none"
         transform="matrix(0.13333333,0,0,-0.13333333,0,573.86667)" />
      <path
         id="path24"
         d="m 6572.67,1092.19 h -65.44 v 279.91 h 65.44 z m 8.8,364.59 c 0,-23.08 -18.7,-39.59 -41.8,-39.59 -22.54,0 -41.24,16.51 -41.24,39.59 0,22.56 18.7,39.61 41.24,39.61 23.1,0 41.8,-17.05 41.8,-39.61"
         style="fill:#123165;fill-opacity:1;fill-rule:nonzero;stroke:none"
         transform="matrix(0.13333333,0,0,-0.13333333,0,573.86667)" />
      <path
         id="path25"
         d="M 6899.84,1372.1 6798.1,1092.19 h -68.19 l -101.73,279.91 h 72.04 l 64.34,-203.46 h 1.1 L 6830,1372.1 h 69.84"
         style="fill:#123165;fill-opacity:1;fill-rule:nonzero;stroke:none"
         transform="matrix(0.13333333,0,0,-0.13333333,0,573.86667)" />
      <path
         id="path26"
         d="m 6995.74,1257.72 h 127.03 c -2.74,42.89 -25.29,67.64 -62.14,67.64 -36.3,0 -59.39,-24.2 -64.89,-67.64 z m 73.13,-172.13 c -83.03,0 -138.57,58.85 -138.57,147.39 0,86.89 53.34,146.26 131.42,146.26 75.35,0 124.29,-56.09 124.29,-142.42 0,-9.35 -0.54,-19.26 -1.1,-26.95 h -188.07 c 7.15,-43.44 32.99,-68.18 72.59,-68.18 25.84,0 46.74,9.9 68.74,32.98 l 40.69,-42.89 c -31.89,-31.34 -67.64,-46.19 -109.99,-46.19"
         style="fill:#123165;fill-opacity:1;fill-rule:nonzero;stroke:none"
         transform="matrix(0.13333333,0,0,-0.13333333,0,573.86667)" />
      <path
         id="path27"
         d="m 7426.86,1373.21 -10.45,-67.09 c -9.9,5.49 -21.99,8.79 -36.29,8.79 -45.09,0 -57.19,-36.29 -57.19,-79.18 v -143.54 h -65.44 v 279.91 h 64.33 v -35.2 h 1.11 c 14.84,26.41 41.24,42.34 73.14,42.34 9.35,0 20.89,-1.64 30.79,-6.03"
         style="fill:#123165;fill-opacity:1;fill-rule:nonzero;stroke:none"
         transform="matrix(0.13333333,0,0,-0.13333333,0,573.86667)" />
      <path
         id="path28"
         d="m 7488.75,1171.37 c 27.5,-20.89 54.44,-31.34 79.19,-31.34 24.2,0 41.24,11.01 41.24,28.04 0,47.85 -140.23,30.8 -140.23,124.3 0,51.68 42.89,86.87 105.59,86.87 33.54,0 67.09,-9.88 96.78,-29.14 l -30.8,-51.13 c -24.19,16.49 -45.64,24.75 -67.09,24.75 -24.2,0 -40.14,-10.45 -40.14,-25.86 0,-45.65 139.68,-29.69 139.68,-123.73 0,-52.8 -43.44,-88.54 -107.79,-88.54 -37.39,0 -75.33,11.55 -107.78,34.1 l 31.35,51.68"
         style="fill:#123165;fill-opacity:1;fill-rule:nonzero;stroke:none"
         transform="matrix(0.13333333,0,0,-0.13333333,0,573.86667)" />
      <path
         id="path29"
         d="m 7808.39,1092.19 h -65.43 v 279.91 h 65.43 z m 8.8,364.59 c 0,-23.08 -18.7,-39.59 -41.79,-39.59 -22.55,0 -41.24,16.51 -41.24,39.59 0,22.56 18.69,39.61 41.24,39.61 23.09,0 41.79,-17.05 41.79,-39.61"
         style="fill:#123165;fill-opacity:1;fill-rule:nonzero;stroke:none"
         transform="matrix(0.13333333,0,0,-0.13333333,0,573.86667)" />
      <path
         id="path30"
         d="m 8038.24,1152.14 v -56.1 c -14.3,-6.6 -35.75,-10.45 -55,-10.45 -49.49,0 -76.44,27.5 -76.44,78.64 v 153.43 h -42.89 v 54.44 h 42.35 v 76.44 l 65.44,14.3 v -90.74 h 66.54 v -54.44 h -66.54 v -138.02 c 0,-25.86 8.79,-36.86 30.24,-36.86 12.1,0 25.29,3.85 36.3,9.36"
         style="fill:#123165;fill-opacity:1;fill-rule:nonzero;stroke:none"
         transform="matrix(0.13333333,0,0,-0.13333333,0,573.86667)" />
      <path
         id="path31"
         d="m 8270.82,1415.55 c -20.9,0 -39.05,17.6 -39.05,37.95 0,20.33 18.15,38.48 39.05,38.48 20.9,0 39.04,-18.15 39.04,-38.48 0,-20.35 -18.14,-37.95 -39.04,-37.95 z m -72.04,-281.01 c 23.64,0 45.64,11.54 63.78,33.53 v 48.95 c -15.4,3.85 -31.34,5.51 -45.64,5.51 -41.24,0 -64.89,-16.51 -64.89,-46.2 0,-25.85 18.15,-41.79 46.75,-41.79 z m -42.35,281.01 c -20.9,0 -39.04,17.6 -39.04,37.95 0,20.33 18.14,38.48 39.04,38.48 20.9,0 39.04,-18.15 39.04,-38.48 0,-20.35 -18.14,-37.95 -39.04,-37.95 z m 53.34,-149.59 c 18.15,0 34.65,-1.09 52.79,-6.03 v 9.88 c 0,35.74 -20.89,54.45 -61.59,54.45 -22.55,0 -47.84,-5.5 -70.93,-15.95 l -14.3,55 c 25.84,9.9 59.94,15.93 91.83,15.93 78.65,0 119.34,-36.83 119.34,-108.32 v -178.73 h -62.15 v 29.69 h -1.09 c -24.2,-24.74 -49.49,-36.29 -81.95,-36.29 -56.09,0 -92.38,34.65 -92.38,89.08 0,59.4 42.35,91.29 120.43,91.29"
         style="fill:#123165;fill-opacity:1;fill-rule:nonzero;stroke:none"
         transform="matrix(0.13333333,0,0,-0.13333333,0,573.86667)" />
      <path
         id="path32"
         d="m 8552.1,1152.14 v -56.1 c -14.3,-6.6 -35.76,-10.45 -55,-10.45 -49.5,0 -76.44,27.5 -76.44,78.64 v 153.43 h -42.89 v 54.44 h 42.34 v 76.44 l 65.44,14.3 v -90.74 h 66.55 v -54.44 h -66.55 v -138.02 c 0,-25.86 8.8,-36.86 30.25,-36.86 12.1,0 25.29,3.85 36.3,9.36"
         style="fill:#123165;fill-opacity:1;fill-rule:nonzero;stroke:none"
         transform="matrix(0.13333333,0,0,-0.13333333,0,573.86667)" />
      <path
         id="path33"
         d="M 740.172,487.191 H 487.203 V 874.34 h 245.82 V 811.648 H 555.398 V 719.262 H 690.68 V 657.121 H 555.398 v -107.23 h 184.774 v -62.7"
         style="fill:#123165;fill-opacity:1;fill-rule:nonzero;stroke:none"
         transform="matrix(0.13333333,0,0,-0.13333333,0,573.86667)" />
      <path
         id="path34"
         d="m 977.066,768.211 -10.449,-67.09 c -9.89,5.488 -21.992,8.789 -36.297,8.789 -45.09,0 -57.187,-36.289 -57.187,-79.18 V 487.191 h -65.442 v 279.911 h 64.336 v -35.204 h 1.106 c 14.844,26.411 41.238,42.34 73.144,42.34 9.344,0 20.887,-1.636 30.789,-6.027"
         style="fill:#123165;fill-opacity:1;fill-rule:nonzero;stroke:none"
         transform="matrix(0.13333333,0,0,-0.13333333,0,573.86667)" />
      <path
         id="path35"
         d="m 1097.8,487.191 h -65.44 v 393.75 l 65.44,14.848 V 487.191"
         style="fill:#123165;fill-opacity:1;fill-rule:nonzero;stroke:none"
         transform="matrix(0.13333333,0,0,-0.13333333,0,573.86667)" />
      <path
         id="path36"
         d="m 1275.44,529.539 c 23.64,0 45.64,11.543 63.78,33.531 v 48.95 c -15.4,3.851 -31.34,5.511 -45.64,5.511 -41.24,0 -64.89,-16.511 -64.89,-46.203 0,-25.848 18.15,-41.789 46.75,-41.789 z m 10.99,131.422 c 18.15,0 34.65,-1.09 52.79,-6.031 v 9.879 c 0,35.742 -20.89,54.453 -61.59,54.453 -22.55,0 -47.84,-5.5 -70.93,-15.953 l -14.3,55 c 25.84,9.902 59.94,15.929 91.83,15.929 78.65,0 119.34,-36.828 119.34,-108.316 V 487.191 h -62.15 v 29.688 h -1.09 c -24.2,-24.738 -49.49,-36.289 -81.94,-36.289 -56.1,0 -92.39,34.652 -92.39,89.082 0,59.398 42.35,91.289 120.43,91.289"
         style="fill:#123165;fill-opacity:1;fill-rule:nonzero;stroke:none"
         transform="matrix(0.13333333,0,0,-0.13333333,0,573.86667)" />
      <path
         id="path37"
         d="m 1727.41,487.191 h -65.45 v 160.02 c 0,40.711 -12.09,68.211 -51.69,68.211 -45.64,0 -58.29,-37.41 -58.29,-67.66 V 487.191 h -65.44 v 279.911 h 64.89 v -33.543 h 1.1 c 16.5,24.75 46.2,40.679 82.49,40.679 63.78,0 92.39,-46.726 92.39,-113.277 v -173.77"
         style="fill:#123165;fill-opacity:1;fill-rule:nonzero;stroke:none"
         transform="matrix(0.13333333,0,0,-0.13333333,0,573.86667)" />
      <path
         id="path38"
         d="m 1861.8,629.07 c 0,-54.98 24.19,-87.441 65.44,-87.441 24.75,0 45.65,12.109 65.99,36.851 v 100.079 c -19.25,24.203 -41.24,36.863 -66.54,36.863 -40.7,0 -64.89,-31.352 -64.89,-86.352 z m 8.8,-202.91 14.3,0.551 c 83.58,3.301 108.33,26.93 108.33,79.719 v 18.152 h -0.55 c -19.79,-25.301 -51.14,-39.051 -84.69,-39.051 -67.64,0 -111.08,55.551 -111.08,141.899 0,88.531 45.64,146.808 113.83,146.808 33.54,0 63.8,-14.289 82.49,-39.039 h 1.1 v 31.903 h 64.34 V 515.789 c 0,-90.738 -46.19,-135.84 -167.73,-140.777 l -13.75,-0.551 -6.59,51.699"
         style="fill:#123165;fill-opacity:1;fill-rule:nonzero;stroke:none"
         transform="matrix(0.13333333,0,0,-0.13333333,0,573.86667)" />
      <path
         id="path39"
         d="m 2194.65,652.719 h 127.04 c -2.76,42.89 -25.3,67.64 -62.14,67.64 -36.3,0 -59.4,-24.199 -64.9,-67.64 z m 73.14,-172.129 c -83.04,0 -138.57,58.851 -138.57,147.39 0,86.891 53.33,146.258 131.42,146.258 75.34,0 124.29,-56.09 124.29,-142.418 0,-9.351 -0.55,-19.261 -1.11,-26.949 h -188.07 c 7.16,-43.441 33,-68.18 72.6,-68.18 25.84,0 46.73,9.899 68.74,32.981 l 40.69,-42.891 c -31.89,-31.34 -67.64,-46.191 -109.99,-46.191"
         style="fill:#123165;fill-opacity:1;fill-rule:nonzero;stroke:none"
         transform="matrix(0.13333333,0,0,-0.13333333,0,573.86667)" />
      <path
         id="path40"
         d="m 2697.27,487.191 h -65.45 v 160.02 c 0,40.711 -12.09,68.211 -51.69,68.211 -45.64,0 -58.29,-37.41 -58.29,-67.66 V 487.191 h -65.44 v 279.911 h 64.9 v -33.543 h 1.09 c 16.5,24.75 46.2,40.679 82.49,40.679 63.79,0 92.39,-46.726 92.39,-113.277 v -173.77"
         style="fill:#123165;fill-opacity:1;fill-rule:nonzero;stroke:none"
         transform="matrix(0.13333333,0,0,-0.13333333,0,573.86667)" />
      <path
         id="path41"
         d="m 2909.85,627.98 h -137.48 v 62.141 h 137.48 V 627.98"
         style="fill:#123165;fill-opacity:1;fill-rule:nonzero;stroke:none"
         transform="matrix(0.13333333,0,0,-0.13333333,0,573.86667)" />
      <path
         id="path42"
         d="m 2994.83,874.34 h 69.84 L 3236.8,604.32 h 1.1 l -1.64,270.02 h 66.53 V 487.191 h -68.18 l -172.69,271.661 h -1.09 l 1.09,-271.661 h -67.09 V 874.34"
         style="fill:#123165;fill-opacity:1;fill-rule:nonzero;stroke:none"
         transform="matrix(0.13333333,0,0,-0.13333333,0,573.86667)" />
      <path
         id="path43"
         d="m 3569.73,810.551 c -20.9,0 -39.05,17.597 -39.05,37.949 0,20.328 18.15,38.48 39.05,38.48 20.89,0 39.05,-18.152 39.05,-38.48 0,-20.352 -18.16,-37.949 -39.05,-37.949 z m -114.39,0 c -20.89,0 -39.04,17.597 -39.04,37.949 0,20.328 18.15,38.48 39.04,38.48 20.9,0 39.05,-18.152 39.05,-38.48 0,-20.352 -18.15,-37.949 -39.05,-37.949 z m 2.21,-211.723 c 0,-38.488 19.24,-58.84 55.53,-58.84 35.75,0 54.45,19.782 54.45,59.391 v 167.723 h 65.44 v -169.93 c 0,-73.692 -41.25,-116.582 -118.24,-116.582 -76.43,0 -122.62,42.89 -122.62,116.039 v 170.473 h 65.44 V 598.828"
         style="fill:#123165;fill-opacity:1;fill-rule:nonzero;stroke:none"
         transform="matrix(0.13333333,0,0,-0.13333333,0,573.86667)" />
      <path
         id="path44"
         d="m 3885.32,768.211 -10.45,-67.09 c -9.9,5.488 -21.99,8.789 -36.29,8.789 -45.1,0 -57.2,-36.289 -57.2,-79.18 V 487.191 h -65.44 v 279.911 h 64.34 v -35.204 h 1.1 c 14.85,26.411 41.24,42.34 73.15,42.34 9.34,0 20.89,-1.636 30.79,-6.027"
         style="fill:#123165;fill-opacity:1;fill-rule:nonzero;stroke:none"
         transform="matrix(0.13333333,0,0,-0.13333333,0,573.86667)" />
      <path
         id="path45"
         d="m 4180.71,487.191 h -65.45 v 160.02 c 0,40.711 -12.09,68.211 -51.69,68.211 -45.64,0 -58.29,-37.41 -58.29,-67.66 V 487.191 h -65.44 v 279.911 h 64.89 v -33.543 h 1.1 c 16.5,24.75 46.2,40.679 82.49,40.679 63.79,0 92.39,-46.726 92.39,-113.277 v -173.77"
         style="fill:#123165;fill-opacity:1;fill-rule:nonzero;stroke:none"
         transform="matrix(0.13333333,0,0,-0.13333333,0,573.86667)" />
      <path
         id="path46"
         d="m 4461.04,627.43 c 0,57.73 -23.64,87.992 -65.44,87.992 -25.3,0 -45.64,-11 -65.99,-36.313 V 576.82 c 18.7,-24.738 39.6,-37.929 66.54,-37.929 42.34,0 64.89,32.437 64.89,88.539 z m 64.35,1.64 c 0,-90.179 -45.65,-148.48 -114.39,-148.48 -35.19,0 -64.34,14.851 -83.04,39.051 h -1.1 v -32.45 h -62.69 v 392.641 l 65.44,16.496 v -161.68 h 1.1 c 18.7,24.75 47.29,39.59 81.93,39.59 67.1,0 112.75,-54.429 112.75,-145.168"
         style="fill:#123165;fill-opacity:1;fill-rule:nonzero;stroke:none"
         transform="matrix(0.13333333,0,0,-0.13333333,0,573.86667)" />
      <path
         id="path47"
         d="m 4648.28,652.719 h 127.03 c -2.75,42.89 -25.29,67.64 -62.14,67.64 -36.3,0 -59.39,-24.199 -64.89,-67.64 z m 73.13,-172.129 c -83.03,0 -138.57,58.851 -138.57,147.39 0,86.891 53.34,146.258 131.42,146.258 75.35,0 124.29,-56.09 124.29,-142.418 0,-9.351 -0.55,-19.261 -1.1,-26.949 h -188.07 c 7.15,-43.441 32.99,-68.18 72.59,-68.18 25.84,0 46.74,9.899 68.74,32.981 l 40.69,-42.891 c -31.89,-31.34 -67.64,-46.191 -109.99,-46.191"
         style="fill:#123165;fill-opacity:1;fill-rule:nonzero;stroke:none"
         transform="matrix(0.13333333,0,0,-0.13333333,0,573.86667)" />
      <path
         id="path48"
         d="m 5079.4,768.211 -10.45,-67.09 c -9.9,5.488 -21.99,8.789 -36.29,8.789 -45.1,0 -57.19,-36.289 -57.19,-79.18 V 487.191 h -65.44 v 279.911 h 64.33 v -35.204 h 1.11 c 14.84,26.411 41.24,42.34 73.14,42.34 9.35,0 20.89,-1.636 30.79,-6.027"
         style="fill:#123165;fill-opacity:1;fill-rule:nonzero;stroke:none"
         transform="matrix(0.13333333,0,0,-0.13333333,0,573.86667)" />
      <path
         id="path49"
         d="m 5181.27,629.07 c 0,-54.98 24.19,-87.441 65.44,-87.441 24.74,0 45.64,12.109 65.98,36.851 v 100.079 c -19.25,24.203 -41.24,36.863 -66.54,36.863 -40.69,0 -64.88,-31.352 -64.88,-86.352 z m 8.79,-202.91 14.3,0.551 c 83.59,3.301 108.33,26.93 108.33,79.719 v 18.152 h -0.55 c -19.79,-25.301 -51.14,-39.051 -84.68,-39.051 -67.65,0 -111.09,55.551 -111.09,141.899 0,88.531 45.65,146.808 113.83,146.808 33.55,0 63.8,-14.289 82.49,-39.039 h 1.11 v 31.903 h 64.33 V 515.789 c 0,-90.738 -46.19,-135.84 -167.72,-140.777 l -13.75,-0.551 -6.6,51.699"
         style="fill:#123165;fill-opacity:1;fill-rule:nonzero;stroke:none"
         transform="matrix(0.13333333,0,0,-0.13333333,0,573.86667)" />
      <path
         id="path50"
         d="m 2417.02,2745.02 h 97.68 l 256.38,608.36 -48.79,115.87 z m 402.76,492.7 -207.64,-492.7 h 415.09 z M 2376,2647.57 2087.82,1965.51 h -97.44 l 731.71,1735.63 402.58,-956.12 h 97.44 l -451.29,1071.81 h 97.44 l 492.31,-1169.26 z m 589.69,1169.26 750.58,-1782.78 61.87,84.19 -715.01,1698.59 z m -389.75,0 -716.1,-1698.59 62.02,-84.19 751.52,1782.78 z m -143.37,-1266.69 -246.39,-584.63 97.45,0.01 -0.01,-0.01 h 0.01 l 123.19,292.32 h 825.54 l 123.08,-292.32 h 97.44 l -164.11,389.76 h -840.89 l 41.07,97.43 h 856.24 l 205.13,-487.19 h 97.44 L 3401.6,2550.14 Z M 682.055,1965.51 h 97.437 v 487.19 h 97.438 v -405.38 l 97.437,97.44 v 307.94 h 746.603 v 97.44 H 682.055 Z M 1867.68,2939.89 H 974.367 v 389.75 h 795.873 l 97.44,97.44 H 974.367 v 97.44 h 974.373 v 97.43 H 876.93 v -779.49 h 894.6 z M 779.492,3719.39 H 1948.74 v 97.44 H 682.055 V 2647.57 H 1720.97 v 97.45 H 779.492 Z m -292.312,-81.8 97.437,97.44 V 1965.51 H 487.18 Z M 4629.82,2087.31 c 295.8,0 503.58,219.08 503.86,514.8 v 0 1132.92 l -97.44,-97.44 V 2696.3 c 0,-188.34 -152.68,-316.67 -341.03,-316.67 -204.19,0 -341.03,101.76 -341.03,316.67 v 1120.53 h -97.44 V 2696.3 c 0,-270.06 178.24,-414.12 438.47,-414.12 99.02,0 219.22,48.93 300.85,135.03 l 2.2,-2.86 c -76.55,-141.95 -186,-229.6 -368.44,-229.6 -262.21,0 -470.52,187.58 -470.52,464.46 l 0.01,1167.62 h -97.45 l 0.06,-1168.44 c 0,-331.22 253.65,-561.08 567.9,-561.08 z m 796.17,1729.52 V 2696.3 c 0,-260.75 -116.34,-484.76 -387.8,-656.58 l -2.19,2.87 c 178.37,141.47 292.56,323.17 292.56,557.89 v 1216.35 h -97.44 V 2602.11 c -0.01,-349.79 -283.56,-612.24 -633.35,-612.24 -349.79,0 -633.34,262.45 -633.34,612.24 v 1132.92 l -97.44,-97.44 V 2600.48 c 0,-403.6 327.18,-706.42 730.78,-706.42 9.34,0 97.44,0 97.44,0 397.43,0 828.22,293.5 828.22,800.8 0,0.48 0,1121.97 0,1121.97 h -97.44"
         style="fill:#123165;fill-opacity:1;fill-rule:nonzero;stroke:none"
         transform="matrix(0.13333333,0,0,-0.13333333,0,573.86667)" />
    </g>
  </g>
</svg>
