<?xml version="1.0" encoding="UTF-8" standalone="no"?>
<!-- Created with Inkscape (http://www.inkscape.org/) -->

<svg
   width="512"
   height="512"
   viewBox="0 0 512 512"
   version="1.1"
   id="svg1"
   xml:space="preserve"
   xmlns="http://www.w3.org/2000/svg"
   xmlns:svg="http://www.w3.org/2000/svg"><defs
     id="defs1" /><g
     id="layer2"><circle
       style="opacity:1;fill:#2c2e35;fill-opacity:1;stroke:none;stroke-width:10;stroke-linecap:square;stroke-linejoin:miter;stroke-dasharray:none;stroke-opacity:1"
       id="path27"
       cx="256"
       cy="256"
       r="256" /><circle
       style="opacity:1;fill:#ffffff;stroke-width:10;stroke-linecap:round"
       id="path1"
       cx="256"
       cy="39.021626"
       r="21.756117" /><circle
       style="fill:#ffffff;stroke-width:7.3301;stroke-linecap:round"
       id="path1-1"
       cx="198.81123"
       cy="76.532135"
       r="15.947445" /><circle
       style="fill:#ffffff;fill-opacity:1;stroke-width:2.57282;stroke-linecap:round"
       id="path1-1-8-3"
       cx="214.36176"
       cy="109.54133"
       r="5.5974479" /><circle
       style="fill:#ffffff;stroke-width:4.95146;stroke-linecap:round"
       id="path1-2-3-2-7-2"
       cx="76.854095"
       cy="160.12965"
       r="10.772447" /><path
       id="path8"
       style="opacity:1;fill:#04316a;fill-opacity:1;stroke:#ffffff;stroke-width:15;stroke-linecap:square;stroke-linejoin:miter;stroke-dasharray:none;stroke-opacity:1"
       d="m 232.40136,30.674581 a 97.829636,39.430573 0 0 1 -82.04096,-38.9136691 97.829636,39.430573 0 0 1 97.82963,-39.4305729 97.829636,39.430573 0 0 1 55.55211,6.973879"
       transform="rotate(45)" /><path
       style="fill:none;fill-opacity:1;stroke:#ffffff;stroke-width:10;stroke-linecap:round;stroke-linejoin:round;stroke-dasharray:none;stroke-opacity:1"
       d="M 256,73.907682 V 88.706531 Z"
       id="path3-47" /><path
       style="fill:none;stroke:#ffffff;stroke-width:10;stroke-linecap:round;stroke-linejoin:round;stroke-dasharray:none"
       d="M 235,84.178093 V 140.17809 Z"
       id="path3-47-0" /><path
       style="fill:none;stroke:#ffffff;stroke-width:10;stroke-linecap:round;stroke-linejoin:round;stroke-dasharray:none"
       d="m 256,106.10229 v 56 z"
       id="path3-47-0-8" /><circle
       style="fill:#ffffff;stroke-width:7.3301;stroke-linecap:round"
       id="circle9"
       cx="-313.24158"
       cy="76.532135"
       r="15.947445"
       transform="scale(-1,1)" /><circle
       style="fill:#ffffff;fill-opacity:1;stroke-width:2.57282;stroke-linecap:round"
       id="circle10"
       cx="-297.69104"
       cy="109.54133"
       r="5.5974479"
       transform="scale(-1,1)" /><circle
       style="fill:#ffffff;stroke-width:4.95146;stroke-linecap:round"
       id="circle11"
       cx="-435.19873"
       cy="160.12964"
       r="10.772447"
       transform="scale(-1,1)" /><path
       id="path11"
       style="opacity:1;fill:#04316a;fill-opacity:1;stroke:#ffffff;stroke-width:15;stroke-linecap:square;stroke-linejoin:miter;stroke-dasharray:none;stroke-opacity:1"
       d="m 369.41043,186.02278 a 39.430573,97.829636 45 0 0 30.4956,-85.52784 39.430573,97.829636 45 0 0 -97.05762,41.29437 39.430573,97.829636 45 0 0 -34.34999,44.21255" /><path
       style="fill:none;stroke:#ffffff;stroke-width:10;stroke-linecap:round;stroke-linejoin:round;stroke-dasharray:none"
       d="M 277.05281,84.178093 V 140.17809 Z"
       id="path12" /><circle
       style="opacity:1;fill:#ffffff;stroke-width:10;stroke-linecap:round"
       id="circle14"
       cx="255.24388"
       cy="-473.7561"
       r="21.756117"
       transform="scale(1,-1)" /><circle
       style="fill:#ffffff;stroke-width:7.3301;stroke-linecap:round"
       id="circle15"
       cx="198.05511"
       cy="-436.24564"
       r="15.947445"
       transform="scale(1,-1)" /><circle
       style="fill:#ffffff;fill-opacity:1;stroke-width:2.57282;stroke-linecap:round"
       id="circle16"
       cx="213.60564"
       cy="-403.23645"
       r="5.5974479"
       transform="scale(1,-1)" /><circle
       style="fill:#ffffff;stroke-width:4.95146;stroke-linecap:round"
       id="circle17"
       cx="76.097977"
       cy="-352.64813"
       r="10.772447"
       transform="scale(1,-1)" /><path
       id="path17"
       style="opacity:1;fill:#04316a;fill-opacity:1;stroke:#ffffff;stroke-width:15;stroke-linecap:square;stroke-linejoin:miter;stroke-dasharray:none;stroke-opacity:1"
       d="m 141.88625,326.75499 a 39.430573,97.829636 45 0 0 -30.4956,85.52783 39.430573,97.829636 45 0 0 97.05762,-41.29437 39.430573,97.829636 45 0 0 34.35,-44.21255" /><path
       style="fill:none;stroke:#ffffff;stroke-width:10;stroke-linecap:round;stroke-linejoin:round;stroke-dasharray:none;stroke-opacity:1"
       d="M 255.24388,438.87008 V 424.07124 Z"
       id="path18" /><path
       style="fill:none;stroke:#ffffff;stroke-width:10;stroke-linecap:round;stroke-linejoin:round;stroke-dasharray:none"
       d="M 234.24388,428.59967 V 372.59968 Z"
       id="path19" /><path
       style="fill:none;stroke:#ffffff;stroke-width:10;stroke-linecap:round;stroke-linejoin:round;stroke-dasharray:none"
       d="m 255.24388,406.67548 v -56 z"
       id="path20" /><circle
       style="fill:#ffffff;stroke-width:7.3301;stroke-linecap:round"
       id="circle20"
       cx="-312.48547"
       cy="-436.24564"
       r="15.947445"
       transform="scale(-1)" /><circle
       style="fill:#ffffff;fill-opacity:1;stroke-width:2.57282;stroke-linecap:round"
       id="circle21"
       cx="-296.93494"
       cy="-403.23645"
       r="5.5974479"
       transform="scale(-1)" /><circle
       style="fill:#ffffff;stroke-width:4.95146;stroke-linecap:round"
       id="circle22"
       cx="-434.44263"
       cy="-352.64813"
       r="10.772447"
       transform="scale(-1)" /><path
       id="path22"
       style="opacity:1;fill:#04316a;fill-opacity:1;stroke:#ffffff;stroke-width:15;stroke-linecap:square;stroke-linejoin:miter;stroke-dasharray:none;stroke-opacity:1"
       d="m 368.65431,326.75499 a 97.829636,39.430573 45 0 1 30.4956,85.52784 97.829636,39.430573 45 0 1 -97.05762,-41.29437 97.829636,39.430573 45 0 1 -34.34999,-44.21255" /><rect
       style="opacity:1;fill:#ffffff;stroke:none;stroke-width:56.083;stroke-linecap:square;stroke-linejoin:miter;stroke-dasharray:none"
       id="rect9"
       width="463.84796"
       height="140"
       x="23.970406"
       y="186"
       ry="14.497705" /><path
       style="fill:none;stroke:#ffffff;stroke-width:10;stroke-linecap:round;stroke-linejoin:round;stroke-dasharray:none"
       d="M 276.29669,428.59967 V 372.59968 Z"
       id="path23" /><text
       xml:space="preserve"
       style="font-size:96px;line-height:0;text-align:start;letter-spacing:5px;writing-mode:lr-tb;direction:ltr;text-anchor:start;opacity:1;fill:#04316a;fill-opacity:1;stroke:none;stroke-width:10;stroke-linecap:square;stroke-linejoin:miter;stroke-dasharray:none"
       x="50.359375"
       y="290.07812"
       id="text26"><tspan
         id="tspan26"
         x="50.359375"
         y="290.07812"
         style="font-style:normal;font-variant:normal;font-weight:bold;font-stretch:normal;font-size:96px;line-height:0;font-family:Bahnschrift;-inkscape-font-specification:Bahnschrift;letter-spacing:5px;writing-mode:lr-tb;opacity:1;fill:#04316a;fill-opacity:1;stroke:none">FA<tspan
   style="fill:#2c2e35;fill-opacity:1"
   id="tspan1">USI</tspan>ON</tspan></text></g></svg>
