<?xml version="1.0" encoding="UTF-8" standalone="no"?>
<!-- Created with Inkscape (http://www.inkscape.org/) -->

<svg
   width="512"
   height="512"
   viewBox="0 0 512 512"
   version="1.1"
   id="svg1"
   xml:space="preserve"
   xmlns="http://www.w3.org/2000/svg"
   xmlns:svg="http://www.w3.org/2000/svg"><defs
     id="defs1" /><g
     id="layer2"><circle
       style="opacity:1;fill:#2c2e35;fill-opacity:1;stroke:none;stroke-width:10;stroke-linecap:square;stroke-linejoin:miter;stroke-dasharray:none;stroke-opacity:1"
       id="path27"
       cx="256"
       cy="256"
       r="256" /><circle
       style="opacity:1;fill:#ffffff;stroke-width:10;stroke-linecap:round"
       id="path1"
       cx="256"
       cy="39.021626"
       r="21.756117" /><circle
       style="fill:#ffffff;stroke-width:7.3301;stroke-linecap:round"
       id="path1-1"
       cx="198.81123"
       cy="76.532135"
       r="15.947445" /><circle
       style="fill:#ffffff;fill-opacity:1;stroke-width:2.57282;stroke-linecap:round"
       id="path1-1-8-3"
       cx="214.36176"
       cy="109.54133"
       r="5.5974479" /><circle
       style="fill:#ffffff;stroke-width:4.95146;stroke-linecap:round"
       id="path1-2-3-2-7-2"
       cx="76.854095"
       cy="160.12965"
       r="10.772447" /><path
       id="path8"
       style="opacity:1;fill:#04316a;fill-opacity:1;stroke:#ffffff;stroke-width:15;stroke-linecap:square;stroke-linejoin:miter;stroke-dasharray:none;stroke-opacity:1"
       d="m 232.40136,30.674581 a 97.829636,39.430573 0 0 1 -82.04096,-38.9136691 97.829636,39.430573 0 0 1 97.82963,-39.4305729 97.829636,39.430573 0 0 1 55.55211,6.973879"
       transform="rotate(45)" /><path
       style="fill:none;fill-opacity:1;stroke:#ffffff;stroke-width:10;stroke-linecap:round;stroke-linejoin:round;stroke-dasharray:none;stroke-opacity:1"
       d="M 256,73.907682 V 88.706531 Z"
       id="path3-47" /><path
       style="fill:none;stroke:#ffffff;stroke-width:10;stroke-linecap:round;stroke-linejoin:round;stroke-dasharray:none"
       d="M 235,84.178093 V 140.17809 Z"
       id="path3-47-0" /><path
       style="fill:none;stroke:#ffffff;stroke-width:10;stroke-linecap:round;stroke-linejoin:round;stroke-dasharray:none"
       d="m 256,106.10229 v 56 z"
       id="path3-47-0-8" /><circle
       style="fill:#ffffff;stroke-width:7.3301;stroke-linecap:round"
       id="circle9"
       cx="-313.24158"
       cy="76.532135"
       r="15.947445"
       transform="scale(-1,1)" /><circle
       style="fill:#ffffff;fill-opacity:1;stroke-width:2.57282;stroke-linecap:round"
       id="circle10"
       cx="-297.69104"
       cy="109.54133"
       r="5.5974479"
       transform="scale(-1,1)" /><circle
       style="fill:#ffffff;stroke-width:4.95146;stroke-linecap:round"
       id="circle11"
       cx="-435.19873"
       cy="160.12964"
       r="10.772447"
       transform="scale(-1,1)" /><path
       id="path11"
       style="opacity:1;fill:#04316a;fill-opacity:1;stroke:#ffffff;stroke-width:15;stroke-linecap:square;stroke-linejoin:miter;stroke-dasharray:none;stroke-opacity:1"
       d="m 369.41043,186.02278 a 39.430573,97.829636 45 0 0 30.4956,-85.52784 39.430573,97.829636 45 0 0 -97.05762,41.29437 39.430573,97.829636 45 0 0 -34.34999,44.21255" /><path
       style="fill:none;stroke:#ffffff;stroke-width:10;stroke-linecap:round;stroke-linejoin:round;stroke-dasharray:none"
       d="M 277.05281,84.178093 V 140.17809 Z"
       id="path12" /><circle
       style="opacity:1;fill:#ffffff;stroke-width:10;stroke-linecap:round"
       id="circle14"
       cx="255.24388"
       cy="-473.7561"
       r="21.756117"
       transform="scale(1,-1)" /><circle
       style="fill:#ffffff;stroke-width:7.3301;stroke-linecap:round"
       id="circle15"
       cx="198.05511"
       cy="-436.24564"
       r="15.947445"
       transform="scale(1,-1)" /><circle
       style="fill:#ffffff;fill-opacity:1;stroke-width:2.57282;stroke-linecap:round"
       id="circle16"
       cx="213.60564"
       cy="-403.23645"
       r="5.5974479"
       transform="scale(1,-1)" /><circle
       style="fill:#ffffff;stroke-width:4.95146;stroke-linecap:round"
       id="circle17"
       cx="76.097977"
       cy="-352.64813"
       r="10.772447"
       transform="scale(1,-1)" /><path
       id="path17"
       style="opacity:1;fill:#04316a;fill-opacity:1;stroke:#ffffff;stroke-width:15;stroke-linecap:square;stroke-linejoin:miter;stroke-dasharray:none;stroke-opacity:1"
       d="m 141.88625,326.75499 a 39.430573,97.829636 45 0 0 -30.4956,85.52783 39.430573,97.829636 45 0 0 97.05762,-41.29437 39.430573,97.829636 45 0 0 34.35,-44.21255" /><path
       style="fill:none;stroke:#ffffff;stroke-width:10;stroke-linecap:round;stroke-linejoin:round;stroke-dasharray:none;stroke-opacity:1"
       d="M 255.24388,438.87008 V 424.07124 Z"
       id="path18" /><path
       style="fill:none;stroke:#ffffff;stroke-width:10;stroke-linecap:round;stroke-linejoin:round;stroke-dasharray:none"
       d="M 234.24388,428.59967 V 372.59968 Z"
       id="path19" /><path
       style="fill:none;stroke:#ffffff;stroke-width:10;stroke-linecap:round;stroke-linejoin:round;stroke-dasharray:none"
       d="m 255.24388,406.67548 v -56 z"
       id="path20" /><circle
       style="fill:#ffffff;stroke-width:7.3301;stroke-linecap:round"
       id="circle20"
       cx="-312.48547"
       cy="-436.24564"
       r="15.947445"
       transform="scale(-1)" /><circle
       style="fill:#ffffff;fill-opacity:1;stroke-width:2.57282;stroke-linecap:round"
       id="circle21"
       cx="-296.93494"
       cy="-403.23645"
       r="5.5974479"
       transform="scale(-1)" /><circle
       style="fill:#ffffff;stroke-width:4.95146;stroke-linecap:round"
       id="circle22"
       cx="-434.44263"
       cy="-352.64813"
       r="10.772447"
       transform="scale(-1)" /><path
       id="path22"
       style="opacity:1;fill:#04316a;fill-opacity:1;stroke:#ffffff;stroke-width:15;stroke-linecap:square;stroke-linejoin:miter;stroke-dasharray:none;stroke-opacity:1"
       d="m 368.65431,326.75499 a 97.829636,39.430573 45 0 1 30.4956,85.52784 97.829636,39.430573 45 0 1 -97.05762,-41.29437 97.829636,39.430573 45 0 1 -34.34999,-44.21255" /><rect
       style="opacity:1;fill:#ffffff;stroke:none;stroke-width:56.083;stroke-linecap:square;stroke-linejoin:miter;stroke-dasharray:none"
       id="rect9"
       width="463.84796"
       height="140"
       x="23.970406"
       y="186"
       ry="14.497705" /><path
       style="fill:none;stroke:#ffffff;stroke-width:10;stroke-linecap:round;stroke-linejoin:round;stroke-dasharray:none"
       d="M 276.29669,428.59967 V 372.59968 Z"
       id="path23" /><g
       id="text26"
       style="font-size:96px;line-height:0;letter-spacing:5px;fill:#04316a;stroke-width:10;stroke-linecap:square"
       aria-label="FAUSION"><path
         style="font-weight:bold;font-family:Bahnschrift;-inkscape-font-specification:Bahnschrift;opacity:1"
         d="m 57.859375,221.92187 h 12.84375 v 68.15625 h -12.84375 z m 4.6875,28.73438 H 97.46875 v 12.375 H 62.546875 Z m 0,-28.73438 H 102.625 v 12.375 H 62.546875 Z m 68.796875,0 H 139.5 l 26.0625,68.15625 h -13.82813 l -16.3125,-46.54687 -16.31249,46.54687 h -13.82813 z m -13.54687,44.85938 h 35.85937 v 12.375 h -35.85937 z"
         id="path2" /><path
         style="font-weight:bold;font-family:Bahnschrift;-inkscape-font-specification:Bahnschrift;fill:#2c2e35"
         d="m 202.90625,290.78125 q -7.875,0 -13.45313,-2.95313 -5.57812,-3 -8.48437,-8.67187 -2.90625,-5.71875 -2.90625,-13.73438 v -43.5 h 12.84375 V 265.75 q 0,5.85937 3.14062,9.09375 3.14063,3.23437 8.85938,3.23437 5.76562,0 8.90625,-3.23437 Q 215,271.60937 215,265.75 v -43.82813 h 12.84375 v 43.5 q 0,8.01563 -2.95313,13.73438 -2.90625,5.67187 -8.53125,8.67187 -5.57812,2.95313 -13.45312,2.95313 z m 63.54687,0 q -4.875,0 -9.5625,-0.98438 -4.64062,-0.98437 -8.76562,-2.85937 -4.07813,-1.92188 -7.3125,-4.59375 v 0 L 246.76562,271.75 v 0 q 3.9375,3.23437 9.09375,5.01562 5.15625,1.73438 10.59375,1.73438 6.28125,0 9.75,-2.10938 3.46875,-2.15625 3.46875,-6.04687 v -0.0469 q 0,-2.71875 -1.54687,-4.3125 -1.54688,-1.59375 -4.03125,-2.34375 -2.48438,-0.75 -6.375,-1.35937 -0.14063,-0.0469 -0.28125,-0.0469 -0.0937,0 -0.23438,-0.0469 l -1.03125,-0.14063 q -6.84375,-1.07812 -11.34375,-2.67187 -4.5,-1.64063 -7.64062,-5.67188 -3.14063,-4.07812 -3.14063,-11.53125 v -0.0469 q 0,-6.60938 2.95313,-11.29688 2.95312,-4.6875 8.57812,-7.125 5.625,-2.48437 13.59375,-2.48437 3.65625,0 7.45313,0.84375 3.84375,0.84375 7.5,2.4375 3.65625,1.59375 6.9375,3.84375 v 0 l -5.4375,10.875 v 0 Q 281.6875,236.5 277.375,235 q -4.26563,-1.5 -8.20313,-1.5 -5.90625,0 -9.14062,1.96875 -3.23438,1.92187 -3.23438,5.4375 v 0.0469 q 0,2.95313 1.6875,4.6875 1.6875,1.6875 4.17188,2.48438 2.48437,0.79687 6.98437,1.6875 0.1875,0.0469 0.375,0.0937 0.1875,0 0.375,0.0469 0.28125,0.0469 0.51563,0.14063 0.28125,0.0469 0.5625,0.0937 6.46875,1.26562 10.78125,3.09375 4.35937,1.78125 7.26562,5.8125 2.90625,3.98437 2.90625,10.92187 v 0.0937 q 0,6.51563 -3.04687,11.15625 -3.04688,4.64063 -8.90625,7.07813 -5.8125,2.4375 -14.01563,2.4375 z m 54.125,-0.70313 h -13.3125 v -68.15625 h 13.3125 z"
         id="path3" /><path
         style="font-weight:bold;font-family:Bahnschrift;-inkscape-font-specification:Bahnschrift;opacity:1"
         d="m 363.125,290.78125 q -7.40625,0 -13.07813,-3.09375 -5.625,-3.14063 -8.71875,-8.8125 -3.09375,-5.71875 -3.09375,-13.21875 v -19.3125 q 0,-7.5 3.09375,-13.17188 3.09375,-5.71875 8.71875,-8.8125 5.67188,-3.14062 13.07813,-3.14062 7.40625,0 13.03125,3.14062 5.67187,3.09375 8.76562,8.8125 3.09375,5.67188 3.09375,13.17188 v 19.3125 q 0,7.5 -3.09375,13.21875 -3.09375,5.67187 -8.76562,8.8125 -5.625,3.09375 -13.03125,3.09375 z m 0,-12.84375 q 3.46875,0 6.09375,-1.45313 2.625,-1.5 4.03125,-4.21875 1.45312,-2.71875 1.45312,-6.28125 v -19.96875 q 0,-3.5625 -1.45312,-6.28125 -1.40625,-2.71875 -4.03125,-4.17187 -2.625,-1.5 -6.09375,-1.5 -3.46875,0 -6.09375,1.5 -2.625,1.45312 -4.07813,4.17187 -1.40625,2.71875 -1.40625,6.28125 v 19.96875 q 0,3.5625 1.40625,6.28125 1.45313,2.71875 4.07813,4.21875 2.625,1.45313 6.09375,1.45313 z m 42.54687,-56.01563 H 421.375 l 25.35937,52.21875 -1.125,1.21875 v -53.4375 h 12.28125 v 68.10938 h -15.79687 l -25.26563,-51.42188 1.125,-1.21875 v 52.64063 h -12.28125 z"
         id="path4" /></g></g></svg>
