<?xml version="1.0" encoding="UTF-8"?>
<svg width="595px" height="236px" viewBox="0 0 595 236" version="1.1" xmlns="http://www.w3.org/2000/svg" xmlns:xlink="http://www.w3.org/1999/xlink">
    <!-- Generator: Sketch 53.2 (72643) - https://sketchapp.com -->
    <title>Group</title>
    <desc>Created with Sketch.</desc>
    <g id="Page-1" stroke="none" stroke-width="1" fill="none" fill-rule="evenodd">
        <g id="MEGWARE-Logo">
            <g id="Group" transform="translate(-0.000682, 0.648879)">
                <polyline id="Fill-1" fill="#1A1919" points="160.254682 160.060121 142.277682 160.060121 142.277682 112.363121 129.181682 143.146121 116.858682 143.146121 103.763682 112.363121 103.763682 160.060121 86.7526817 160.060121 86.7526817 88.1051209 107.580682 88.1051209 123.528682 123.623121 139.427682 88.1051209 160.254682 88.1051209 160.254682 160.060121"></polyline>
                <polyline id="Fill-2" fill="#1A1919" points="173.104682 160.060121 173.104682 88.1051209 221.767682 88.1051209 221.767682 101.829121 191.081682 101.829121 191.081682 114.441121 219.350682 114.441121 219.350682 128.166121 191.081682 128.166121 191.081682 146.336121 221.767682 146.336121 221.767682 160.060121 173.104682 160.060121"></polyline>
                <path d="M294.111682,154.455121 C290.951682,155.744121 286.854682,157.000121 281.811682,158.223121 C276.767682,159.447121 271.800682,160.060121 266.902682,160.060121 C255.594682,160.060121 246.581682,156.799121 239.864682,150.275121 C233.147682,143.750121 229.789682,134.496121 229.789682,122.512121 C229.789682,111.236121 233.147682,102.200121 239.864682,95.4021209 C246.581682,88.6041209 255.771682,85.2051209 267.433682,85.2051209 C273.458682,85.2051209 278.354682,85.7771209 282.125682,86.9211209 C285.893682,88.0641209 289.791682,89.6191209 293.820682,91.5841209 L293.820682,108.449121 L292.178682,108.449121 C291.307682,107.774121 290.057682,106.814121 288.430682,105.574121 C286.803682,104.334121 285.217682,103.278121 283.672682,102.409121 C281.867682,101.378121 279.779682,100.492121 277.413682,99.7511209 C275.046682,99.0101209 272.540682,98.6401209 269.898682,98.6401209 C266.804682,98.6401209 263.986682,99.1231209 261.441682,100.088121 C258.896682,101.056121 256.625682,102.538121 254.628682,104.535121 C252.727682,106.467121 251.221682,108.917121 250.109682,111.879121 C248.997682,114.845121 248.443682,118.292121 248.443682,122.223121 C248.443682,130.629121 250.552682,136.833121 254.772682,140.827121 C258.993682,144.822121 264.760682,146.820121 272.074682,146.820121 C272.717682,146.820121 273.474682,146.804121 274.345682,146.771121 C275.214682,146.740121 275.970682,146.690121 276.614682,146.626121 L276.614682,132.515121 L262.649682,132.515121 L262.649682,119.033121 L294.111682,119.033121 L294.111682,154.455121" id="Fill-3" fill="#1A1919"></path>
                <polyline id="Fill-4" fill="#1A1919" points="400.568682 88.1051209 382.348682 160.060121 362.535682 160.060121 350.986682 115.553121 339.775682 160.060121 319.963682 160.060121 301.742682 88.1051209 320.492682 88.1051209 330.400682 136.380121 342.482682 88.1051209 360.410682 88.1051209 371.863682 136.380121 382.301682 88.1051209 400.568682 88.1051209"></polyline>
                <path d="M439.947682,132.321121 L432.600682,108.594121 L425.256682,132.321121 L439.947682,132.321121 Z M398.678682,160.060121 L422.984682,88.1051209 L442.699682,88.1051209 L467.008682,160.060121 L448.402682,160.060121 L443.908682,145.369121 L421.293682,145.369121 L416.799682,160.060121 L398.678682,160.060121 L398.678682,160.060121 Z" id="Fill-5" fill="#1A1919"></path>
                <path d="M511.611682,110.141121 C511.611682,108.336121 511.266682,106.782121 510.574682,105.477121 C509.879682,104.173121 508.727682,103.166121 507.117682,102.457121 C505.990682,101.974121 504.732682,101.668121 503.348682,101.539121 C501.963682,101.410121 500.238682,101.346121 498.178682,101.346121 L492.137682,101.346121 L492.137682,120.724121 L497.309682,120.724121 C499.818682,120.724121 501.953682,120.571121 503.709682,120.265121 C505.465682,119.958121 506.955682,119.306121 508.180682,118.307121 C509.340682,117.406121 510.201682,116.326121 510.768682,115.069121 C511.328682,113.813121 511.611682,112.169121 511.611682,110.141121 Z M540.703682,160.060121 L518.666682,160.060121 L498.611682,133.675121 L492.137682,133.675121 L492.137682,160.060121 L474.158682,160.060121 L474.158682,88.1051209 L503.105682,88.1051209 C507.100682,88.1051209 510.578682,88.3541209 513.543682,88.8541209 C516.508682,89.3521209 519.246682,90.3921209 521.760682,91.9701209 C524.336682,93.6141209 526.383682,95.7001209 527.898682,98.2291209 C529.410682,100.759121 530.168682,103.972121 530.168682,107.869121 C530.168682,113.378121 528.930682,117.848121 526.447682,121.279121 C523.967682,124.710121 520.648682,127.440121 516.492682,129.470121 L540.703682,160.060121 L540.703682,160.060121 Z" id="Fill-6" fill="#1A1919"></path>
                <polyline id="Fill-7" fill="#1A1919" points="546.018682 160.060121 546.018682 88.1051209 594.682682 88.1051209 594.682682 101.829121 563.996682 101.829121 563.996682 114.441121 592.266682 114.441121 592.266682 128.166121 563.996682 128.166121 563.996682 146.336121 594.682682 146.336121 594.682682 160.060121 546.018682 160.060121"></polyline>
                <path d="M291.724682,7.00412093 C261.013682,0.264120928 225.953682,-1.87587907 189.103682,1.74412093 C76.3936817,12.8151209 -5.73631833,72.5651209 0.313681671,135.014121 C5.24368167,185.824121 72.3436817,221.974121 153.403682,228.375121 C137.457682,225.889121 137.407682,225.873121 153.323682,228.354121 C153.893682,228.405121 154.463682,228.455121 155.043682,228.495121 C91.3636817,214.754121 46.0436817,181.514121 42.8236817,138.944121 C38.0436817,75.8441209 123.803682,17.4841209 234.103682,7.61412093 C253.806682,5.85712093 272.870682,5.67512093 290.948682,6.92012093 C291.206682,6.94912093 291.466682,6.97512093 291.724682,7.00412093" id="Fill-10" fill="#064A89"></path>
                <path d="M433.983682,60.0651209 C425.213682,57.4641209 414.023682,55.5841209 401.773682,54.9151209 C393.703682,54.4741209 386.023682,54.5941209 379.153682,55.2041209 C363.253682,32.5651209 334.063682,16.2441209 291.533682,6.95412093 C354.503682,11.3741209 408.023682,30.1051209 433.983682,60.0651209" id="Fill-11" fill="#064A89"></path>
                <path d="M370.413682,197.904121 C374.773682,197.564121 379.063682,197.194121 383.264682,196.764121 C350.463682,215.615121 306.764682,229.264121 254.503682,233.905121 C218.943682,237.064121 184.963682,234.955121 155.043682,228.495121 C173.703682,229.875121 193.093682,229.674121 212.613682,227.714121 C252.073682,223.754121 286.693682,213.464121 314.783682,199.174121 C330.563682,199.854121 349.764682,199.494121 370.413682,197.904121" id="Fill-12" fill="#064A89"></path>
            </g>
        </g>
    </g>
</svg>