<?xml version="1.0" encoding="UTF-8" standalone="no"?>
<!-- Created with Inkscape (http://www.inkscape.org/) -->

<svg
   version="1.1"
   id="svg1"
   width="613.41333"
   height="251.37334"
   viewBox="0 0 613.41333 251.37334"
   sodipodi:docname="NHRatFAU-Logo-mSchriftzug_bearbeitet.eps"
   xmlns:inkscape="http://www.inkscape.org/namespaces/inkscape"
   xmlns:sodipodi="http://sodipodi.sourceforge.net/DTD/sodipodi-0.dtd"
   xmlns="http://www.w3.org/2000/svg"
   xmlns:svg="http://www.w3.org/2000/svg">
  <defs
     id="defs1" />
  <sodipodi:namedview
     id="namedview1"
     pagecolor="#ffffff"
     bordercolor="#000000"
     borderopacity="0.25"
     inkscape:showpageshadow="2"
     inkscape:pageopacity="0.0"
     inkscape:pagecheckerboard="0"
     inkscape:deskcolor="#d1d1d1">
    <inkscape:page
       x="0"
       y="0"
       inkscape:label="1"
       id="page1"
       width="613.41333"
       height="251.37334"
       margin="0"
       bleed="0" />
  </sodipodi:namedview>
  <g
     id="g1"
     inkscape:groupmode="layer"
     inkscape:label="1">
    <g
       id="group-R5">
      <path
         id="path2"
         d="m 3025.99,413.66 v 48.621 h 26.52 c 8.67,0 15.47,-1.992 20.41,-5.98 4.94,-3.992 7.41,-10.051 7.41,-18.199 0,-8.153 -2.47,-14.262 -7.41,-18.332 -4.94,-4.071 -12,-6.11 -21.19,-6.11 h -25.74 z m -41.08,82.68 V 313.301 h 41.08 v 66.558 h 26.78 c 13,0 24.66,2.039 34.97,6.11 10.31,4.07 18.46,10.492 24.44,19.242 5.98,8.75 8.97,20.059 8.97,33.93 0,13.871 -2.95,24.961 -8.84,33.281 -5.89,8.316 -13.87,14.387 -23.92,18.199 -10.05,3.809 -21.41,5.719 -34.06,5.719 h -69.42 z m -109.59,-72.281 c -3.03,8.152 -7.76,14.601 -14.17,19.371 -6.41,4.769 -14.82,7.152 -25.22,7.152 -8.67,0 -16.16,-1.691 -22.49,-5.07 -6.33,-3.383 -11.4,-7.93 -15.21,-13.653 h -0.52 v 74.879 l -39,-8.578 V 313.301 h 39 v 76.179 c 0,7.629 1.73,14.168 5.2,19.629 3.47,5.461 9.36,8.192 17.68,8.192 7.28,0 12.48,-2.379 15.6,-7.153 3.12,-4.769 4.68,-11.66 4.68,-20.668 v -76.179 h 39 V 396.5 c 0,10.23 -1.52,19.41 -4.55,27.559 z M 2685.65,403 v -44.461 c -8.32,-9.359 -17.07,-14.039 -26.26,-14.039 -8.49,0 -14.99,3.121 -19.5,9.359 -4.51,6.243 -6.76,15.25 -6.76,27.039 0,11.793 2.25,20.801 6.76,27.043 4.51,6.239 10.92,9.36 19.24,9.36 9.71,0 18.55,-4.77 26.52,-14.301 v 0 z m -43.42,-142.738 c 29.47,1.207 50.53,7.41 63.18,18.59 12.65,11.179 18.98,27.597 18.98,49.269 v 119.078 h -38.22 v -14.558 h -0.26 c -4.33,5.89 -9.79,10.359 -16.38,13.39 -6.59,3.028 -13.69,4.551 -21.32,4.551 -10.57,0 -19.85,-2.863 -27.82,-8.582 -7.97,-5.719 -14.13,-13.781 -18.46,-24.18 -4.33,-10.398 -6.5,-22.621 -6.5,-36.66 0,-13.691 2.12,-25.648 6.37,-35.879 4.25,-10.23 10.27,-18.109 18.07,-23.66 7.8,-5.551 16.99,-8.32 27.56,-8.32 7.63,0 14.69,1.469 21.19,4.418 6.5,2.953 12,7.281 16.51,13 h 0.26 v -8.059 c 0,-7.281 -1.43,-13.39 -4.29,-18.328 -2.86,-4.941 -7.76,-8.711 -14.69,-11.312 -6.93,-2.598 -16.47,-4.161 -28.6,-4.68 l -6.24,-0.52 4.16,-27.82 6.5,0.262 z M 2527.57,447.199 V 313.301 h 39 v 133.898 h -39 z m 3.25,54.731 c -4.42,-4.071 -6.63,-9.231 -6.63,-15.469 0,-6.07 2.21,-11.141 6.63,-15.211 4.42,-4.07 9.84,-6.109 16.25,-6.109 6.41,0 11.87,2.039 16.38,6.109 4.51,4.07 6.76,9.141 6.76,15.211 0,6.238 -2.25,11.398 -6.76,15.469 -4.51,4.07 -9.97,6.109 -16.38,6.109 -6.41,0 -11.83,-2.039 -16.25,-6.109 z m -82.28,-5.59 v -69.68 h -67.08 v 69.68 h -41.6 V 313.301 h 41.6 v 77.219 h 67.34 v -77.219 h 41.6 V 496.34 h -41.86 z m -255.06,2.34 V 313.301 h 39.26 V 506.48 l -39.26,-7.8 z M 2084.93,368.809 c 4.59,3.382 11.14,5.07 19.63,5.07 2.95,0 5.94,-0.219 8.97,-0.649 3.03,-0.429 6.2,-1.082 9.49,-1.949 V 349.18 c -7.28,-8.321 -15.77,-12.481 -25.48,-12.481 -5.89,0 -10.62,1.602 -14.17,4.813 -3.55,3.207 -5.33,7.5 -5.33,12.867 0,6.242 2.3,11.051 6.89,14.43 z m -30.94,-47.059 c 8.06,-7.891 18.85,-11.828 32.37,-11.828 14.04,0 26.52,5.367 37.44,16.117 h 0.52 v -12.738 h 36.14 v 83.719 c 0,35.71 -20.19,53.562 -60.58,53.562 -7.8,0 -15.64,-0.652 -23.53,-1.953 -7.89,-1.297 -15.12,-3.078 -21.71,-5.328 l 7.54,-30.16 c 11.09,4.847 22.19,7.281 33.28,7.281 18.37,0 27.56,-7.801 27.56,-23.402 v -3.122 c -4.33,1.043 -8.41,1.782 -12.22,2.211 -3.81,0.43 -7.8,0.653 -11.96,0.653 -18.55,0 -32.67,-3.731 -42.38,-11.18 -9.71,-7.453 -14.56,-18.203 -14.56,-32.242 0,-13.168 4.03,-23.699 12.09,-31.59 z m -48.62,114.141 c -7.19,9.789 -18.24,14.691 -33.15,14.691 -8.32,0 -15.73,-1.602 -22.23,-4.812 -6.5,-3.211 -11.83,-7.84 -15.99,-13.911 h -0.52 v 15.34 H 1895 V 313.301 h 39 v 76.179 c 0,4.508 0.69,8.879 2.08,13.129 1.39,4.25 3.77,7.762 7.15,10.532 3.38,2.769 7.93,4.16 13.65,4.16 7.63,0 12.91,-2.469 15.86,-7.41 2.95,-4.942 4.42,-11.743 4.42,-20.411 v -76.179 h 39 V 396.5 c 0,16.469 -3.6,29.602 -10.79,39.391 z m -224.63,-82.422 c -5.12,6.672 -7.67,15.73 -7.67,27.172 0,11.269 2.51,20.148 7.54,26.648 5.02,6.5 11.87,9.75 20.54,9.75 8.66,0 15.51,-3.289 20.54,-9.879 5.02,-6.59 7.54,-15.691 7.54,-27.301 0,-11.269 -2.47,-20.148 -7.41,-26.648 -4.94,-6.5 -11.75,-9.75 -20.41,-9.75 -8.67,0 -15.56,3.34 -20.67,10.008 z m 55.64,-34.707 c 9.79,5.886 17.37,14.129 22.75,24.699 5.37,10.57 8.06,22.879 8.06,36.918 0,14.211 -2.73,26.562 -8.19,37.051 -5.46,10.492 -13.09,18.629 -22.88,24.441 -9.8,5.809 -21.37,8.711 -34.71,8.711 -13.18,0 -24.75,-2.902 -34.71,-8.711 -9.97,-5.812 -17.68,-13.949 -23.14,-24.441 -5.46,-10.489 -8.19,-22.84 -8.19,-37.051 0,-14.039 2.77,-26.348 8.32,-36.918 5.54,-10.57 13.3,-18.813 23.27,-24.699 9.96,-5.891 21.53,-8.84 34.71,-8.84 13.34,0 24.91,2.949 34.71,8.84 z M 1667.77,447.199 V 313.301 h 39 v 133.898 h -39 z m 3.25,54.731 c -4.42,-4.071 -6.63,-9.231 -6.63,-15.469 0,-6.07 2.21,-11.141 6.63,-15.211 4.42,-4.07 9.83,-6.109 16.25,-6.109 6.41,0 11.87,2.039 16.38,6.109 4.5,4.07 6.76,9.141 6.76,15.211 0,6.238 -2.26,11.398 -6.76,15.469 -4.51,4.07 -9.97,6.109 -16.38,6.109 -6.42,0 -11.83,-2.039 -16.25,-6.109 z M 1614.6,346.059 c -2.17,2.601 -3.25,6.851 -3.25,12.742 v 57.98 h 30.16 v 30.418 h -30.16 v 42.641 l -38.48,-7.801 v -34.84 h -19.76 v -30.418 h 19.76 v -66.82 c 0,-26.691 13.26,-40.039 39.78,-40.039 5.2,0 10.48,0.476 15.86,1.43 5.37,0.949 9.7,2.296 13,4.027 v 30.941 c -5.2,-2.769 -10.66,-4.16 -16.38,-4.16 -4.86,0 -8.37,1.301 -10.53,3.899 z m -156.78,22.75 c 4.59,3.382 11.14,5.07 19.63,5.07 2.95,0 5.94,-0.219 8.97,-0.649 3.03,-0.429 6.2,-1.082 9.49,-1.949 V 349.18 c -7.28,-8.321 -15.77,-12.481 -25.48,-12.481 -5.89,0 -10.62,1.602 -14.17,4.813 -3.55,3.207 -5.33,7.5 -5.33,12.867 0,6.242 2.3,11.051 6.89,14.43 z m -30.94,-47.059 c 8.06,-7.891 18.85,-11.828 32.37,-11.828 14.04,0 26.52,5.367 37.44,16.117 h 0.52 v -12.738 h 36.14 v 83.719 c 0,35.71 -20.19,53.562 -60.58,53.562 -7.8,0 -15.64,-0.652 -23.53,-1.953 -7.89,-1.297 -15.12,-3.078 -21.71,-5.328 l 7.54,-30.16 c 11.09,4.847 22.19,7.281 33.28,7.281 18.37,0 27.56,-7.801 27.56,-23.402 v -3.122 c -4.33,1.043 -8.41,1.782 -12.22,2.211 -3.81,0.43 -7.8,0.653 -11.96,0.653 -18.55,0 -32.67,-3.731 -42.38,-11.18 -9.71,-7.453 -14.56,-18.203 -14.56,-32.242 0,-13.168 4.03,-23.699 12.09,-31.59 z m -153.53,-8.449 -1.3,115.961 h 0.52 l 73.32,-115.961 h 39.26 V 496.34 h -39.26 l 1.04,-115.18 h -0.52 l -72.54,115.18 h -40.3 V 313.301 h 39.78 z m -155.87,122.59 c -7.19,9.789 -18.24,14.691 -33.15,14.691 -8.32,0 -15.73,-1.602 -22.23,-4.812 -6.5,-3.211 -11.83,-7.84 -15.99,-13.911 h -0.52 v 15.34 h -38.48 V 313.301 h 39 v 76.179 c 0,4.508 0.69,8.879 2.08,13.129 1.39,4.25 3.77,7.762 7.15,10.532 3.38,2.769 7.93,4.16 13.65,4.16 7.63,0 12.91,-2.469 15.86,-7.41 2.95,-4.942 4.42,-11.743 4.42,-20.411 v -76.179 h 39 V 396.5 c 0,16.469 -3.6,29.602 -10.79,39.391 z M 935.617,414.18 c 4.332,-4.848 6.762,-11.871 7.281,-21.059 h -51.742 c 2.426,18.891 11.266,28.34 26.52,28.34 7.625,0 13.605,-2.43 17.941,-7.281 z m 17.418,-58.758 c -4.851,-5.031 -9.707,-8.672 -14.558,-10.922 -4.856,-2.25 -10.055,-3.379 -15.598,-3.379 -17.16,0 -27.477,9.188 -30.941,27.559 h 87.097 c 0.172,2.082 0.305,4.121 0.391,6.109 0.086,1.992 0.133,4.121 0.133,6.371 0,14.211 -2.516,26.481 -7.543,36.789 -5.028,10.313 -12.176,18.332 -21.45,24.051 -9.273,5.719 -20.148,8.582 -32.628,8.582 -12.657,0 -23.836,-2.902 -33.54,-8.711 -9.71,-5.812 -17.25,-13.949 -22.621,-24.441 -5.375,-10.489 -8.058,-22.75 -8.058,-36.789 0,-14.039 2.812,-26.391 8.449,-37.051 5.629,-10.66 13.559,-18.942 23.789,-24.828 10.227,-5.891 22.188,-8.84 35.879,-8.84 21.32,0 39.519,7.539 54.602,22.617 l -23.403,22.883 z M 786.898,403 v -44.461 c -8.32,-9.359 -17.074,-14.039 -26.261,-14.039 -8.492,0 -14.992,3.121 -19.5,9.359 -4.508,6.243 -6.758,15.25 -6.758,27.039 0,11.793 2.25,20.801 6.758,27.043 4.508,6.239 10.922,9.36 19.242,9.36 9.707,0 18.547,-4.77 26.519,-14.301 v 0 z M 743.477,260.262 c 29.468,1.207 50.527,7.41 63.179,18.59 12.653,11.179 18.981,27.597 18.981,49.269 v 119.078 h -38.219 v -14.558 h -0.262 c -4.332,5.89 -9.793,10.359 -16.379,13.39 -6.589,3.028 -13.691,4.551 -21.32,4.551 -10.574,0 -19.848,-2.863 -27.82,-8.582 -7.973,-5.719 -14.129,-13.781 -18.457,-24.18 -4.336,-10.398 -6.5,-22.621 -6.5,-36.66 0,-13.691 2.121,-25.648 6.367,-35.879 4.246,-10.23 10.269,-18.109 18.07,-23.66 7.801,-5.551 16.988,-8.32 27.563,-8.32 7.625,0 14.687,1.469 21.187,4.418 6.5,2.953 12,7.281 16.512,13 h 0.258 v -8.059 c 0,-7.281 -1.43,-13.39 -4.289,-18.328 -2.86,-4.941 -7.758,-8.711 -14.692,-11.312 -6.933,-2.598 -16.468,-4.161 -28.597,-4.68 l -6.243,-0.52 4.161,-27.82 6.5,0.262 z m -84.625,175.629 c -7.196,9.789 -18.247,14.691 -33.153,14.691 -8.32,0 -15.73,-1.602 -22.23,-4.812 -6.5,-3.211 -11.828,-7.84 -15.989,-13.911 h -0.519 v 15.34 H 548.48 V 313.301 h 39 v 76.179 c 0,4.508 0.692,8.879 2.079,13.129 1.386,4.25 3.769,7.762 7.152,10.532 3.379,2.769 7.93,4.16 13.648,4.16 7.625,0 12.911,-2.469 15.86,-7.41 2.945,-4.942 4.422,-11.743 4.422,-20.411 v -76.179 h 39 V 396.5 c 0,16.469 -3.602,29.602 -10.789,39.391 z M 440.711,368.809 c 4.59,3.382 11.137,5.07 19.629,5.07 2.945,0 5.937,-0.219 8.973,-0.649 3.031,-0.429 6.195,-1.082 9.488,-1.949 V 349.18 c -7.281,-8.321 -15.774,-12.481 -25.481,-12.481 -5.894,0 -10.617,1.602 -14.168,4.813 -3.554,3.207 -5.332,7.5 -5.332,12.867 0,6.242 2.297,11.051 6.891,14.43 z M 409.77,321.75 c 8.062,-7.891 18.851,-11.828 32.371,-11.828 14.039,0 26.519,5.367 37.441,16.117 h 0.52 v -12.738 h 36.14 v 83.719 c 0,35.71 -20.195,53.562 -60.582,53.562 -7.801,0 -15.644,-0.652 -23.527,-1.953 -7.891,-1.297 -15.125,-3.078 -21.711,-5.328 l 7.539,-30.16 c 11.09,4.847 22.187,7.281 33.281,7.281 18.371,0 27.559,-7.801 27.559,-23.402 v -3.122 c -4.336,1.043 -8.41,1.782 -12.219,2.211 -3.816,0.43 -7.801,0.653 -11.961,0.653 -18.551,0 -32.676,-3.731 -42.379,-11.18 -9.711,-7.453 -14.562,-18.203 -14.562,-32.242 0,-13.168 4.031,-23.699 12.09,-31.59 z M 330.863,498.68 V 313.301 h 39.262 V 506.48 l -39.262,-7.8 z m -55.246,-53.168 c -5.808,-3.383 -10.445,-8.102 -13.91,-14.172 h -0.519 v 15.859 H 223.227 V 313.301 h 38.742 v 67.597 c 0,9.711 1.73,17.684 5.199,23.922 3.465,6.239 9.879,9.36 19.238,9.36 6.41,0 12.391,-1.469 17.942,-4.418 l 5.718,37.957 c -2.253,1.043 -4.679,1.781 -7.277,2.211 -2.601,0.429 -5.117,0.652 -7.543,0.652 -7.277,0 -13.824,-1.691 -19.629,-5.07 z m -165.226,-96.59 v 41.598 h 61.621 v 34.582 h -61.621 v 35.878 h 80.859 v 35.36 H 70.0898 V 313.301 H 194.629 v 35.621 h -84.238 v 0"
         style="fill:#97a2a7;fill-opacity:1;fill-rule:nonzero;stroke:none"
         transform="matrix(0.13333333,0,0,-0.13333333,0,251.37333)" />
      <path
         id="path3"
         d="m 3461.23,508.301 c -3.81,0.519 -7.71,0.781 -11.7,0.781 -16.29,0 -27.91,-4.16 -34.84,-12.48 -6.93,-8.321 -10.4,-19.672 -10.4,-34.063 v -15.34 h -19.5 v -30.418 h 19.5 v -103.48 h 39 v 103.48 h 25.22 v 30.418 h -25.74 v 13.781 c 0,5.719 1.21,10.008 3.64,12.872 2.43,2.859 6.33,4.289 11.7,4.289 4.51,0 8.84,-0.95 13,-2.86 v 30.418 c -2.77,1.211 -6.07,2.082 -9.88,2.602 z M 3341.5,445.512 c -5.81,-3.383 -10.44,-8.102 -13.91,-14.172 h -0.52 v 15.859 h -37.96 V 313.301 h 38.74 v 67.597 c 0,9.711 1.73,17.684 5.2,23.922 3.47,6.239 9.88,9.36 19.24,9.36 6.41,0 12.39,-1.469 17.94,-4.418 l 5.72,37.957 c -2.25,1.043 -4.68,1.781 -7.28,2.211 -2.6,0.429 -5.11,0.652 -7.54,0.652 -7.28,0 -13.82,-1.691 -19.63,-5.07 z M 3217.36,414.18 c 4.33,-4.848 6.76,-11.871 7.28,-21.059 h -51.74 c 2.42,18.891 11.26,28.34 26.52,28.34 7.62,0 13.6,-2.43 17.94,-7.281 z m 17.42,-58.758 c -4.86,-5.031 -9.71,-8.672 -14.56,-10.922 -4.86,-2.25 -10.06,-3.379 -15.6,-3.379 -17.16,0 -27.48,9.188 -30.94,27.559 h 87.1 c 0.17,2.082 0.3,4.121 0.39,6.109 0.08,1.992 0.13,4.121 0.13,6.371 0,14.211 -2.52,26.481 -7.54,36.789 -5.03,10.313 -12.18,18.332 -21.45,24.051 -9.28,5.719 -20.15,8.582 -32.63,8.582 -12.66,0 -23.84,-2.902 -33.54,-8.711 -9.71,-5.812 -17.25,-13.949 -22.62,-24.441 -5.38,-10.489 -8.06,-22.75 -8.06,-36.789 0,-14.039 2.81,-26.391 8.45,-37.051 5.63,-10.66 13.56,-18.942 23.79,-24.828 10.22,-5.891 22.18,-8.84 35.88,-8.84 21.32,0 39.52,7.539 54.6,22.617 l -23.4,22.883 v 0"
         style="fill:#97a2a7;fill-opacity:1;fill-rule:nonzero;stroke:none"
         transform="matrix(0.13333333,0,0,-0.13333333,0,251.37333)" />
      <path
         id="path4"
         d="m 4333.76,343.719 c -8.49,0 -15.34,3.383 -20.54,10.14 -5.2,6.762 -7.8,15.692 -7.8,26.782 0,11.089 2.6,19.89 7.8,26.39 5.2,6.5 12.05,9.75 20.54,9.75 8.84,0 16.64,-4.59 23.4,-13.781 l 25.74,24.18 c -11.96,15.601 -28.43,23.402 -49.4,23.402 -13.35,0 -25.05,-2.953 -35.1,-8.844 -10.05,-5.886 -17.81,-14.129 -23.27,-24.699 -5.46,-10.57 -8.19,-22.969 -8.19,-37.18 0,-14.039 2.73,-26.3 8.19,-36.789 5.46,-10.488 13.13,-18.629 23.01,-24.441 9.88,-5.809 21.41,-8.707 34.58,-8.707 19.59,0 36.14,7.367 49.66,22.098 l -24.7,25.218 c -7.28,-9.008 -15.25,-13.519 -23.92,-13.519 v 0 z m -104.39,92.172 c -7.19,9.789 -18.24,14.691 -33.15,14.691 -8.32,0 -15.73,-1.602 -22.23,-4.812 -6.5,-3.211 -11.83,-7.84 -15.99,-13.911 h -0.52 v 15.34 H 4119 V 313.301 h 39 v 76.179 c 0,4.508 0.69,8.879 2.08,13.129 1.39,4.25 3.77,7.762 7.15,10.532 3.38,2.769 7.93,4.16 13.65,4.16 7.63,0 12.91,-2.469 15.86,-7.41 2.95,-4.942 4.42,-11.743 4.42,-20.411 v -76.179 h 39 V 396.5 c 0,16.469 -3.6,29.602 -10.79,39.391 z m -218.14,-67.082 c 4.6,3.382 11.14,5.07 19.63,5.07 2.95,0 5.94,-0.219 8.97,-0.649 3.04,-0.429 6.2,-1.082 9.49,-1.949 V 349.18 c -7.28,-8.321 -15.77,-12.481 -25.48,-12.481 -5.89,0 -10.61,1.602 -14.17,4.813 -3.55,3.207 -5.33,7.5 -5.33,12.867 0,6.242 2.3,11.051 6.89,14.43 z m -30.94,-47.059 c 8.06,-7.891 18.85,-11.828 32.37,-11.828 14.04,0 26.52,5.367 37.44,16.117 h 0.52 v -12.738 h 36.14 v 83.719 c 0,35.71 -20.19,53.562 -60.58,53.562 -7.8,0 -15.64,-0.652 -23.53,-1.953 -7.88,-1.297 -15.12,-3.078 -21.71,-5.328 l 7.54,-30.16 c 11.1,4.847 22.19,7.281 33.28,7.281 18.38,0 27.56,-7.801 27.56,-23.402 v -3.122 c -4.33,1.043 -8.4,1.782 -12.22,2.211 -3.81,0.43 -7.8,0.653 -11.96,0.653 -18.54,0 -32.67,-3.731 -42.38,-11.18 -9.7,-7.453 -14.56,-18.203 -14.56,-32.242 0,-13.168 4.03,-23.699 12.09,-31.59 z m -195.12,-8.449 v 77.219 c 0,4.332 0.65,8.539 1.95,12.609 1.3,4.07 3.46,7.453 6.5,10.141 3.03,2.691 7.23,4.031 12.61,4.031 7.1,0 12,-2.469 14.69,-7.41 2.68,-4.942 4.03,-11.481 4.03,-19.629 v -76.961 h 39 v 77.219 c 0,4.332 0.6,8.539 1.82,12.609 1.21,4.07 3.38,7.453 6.5,10.141 3.12,2.691 7.36,4.031 12.74,4.031 7.1,0 11.96,-2.469 14.56,-7.41 2.6,-4.942 3.9,-11.481 3.9,-19.629 v -76.961 h 39.26 V 396.5 c 0,16.641 -3.73,29.809 -11.18,39.52 -7.46,9.71 -18.64,14.562 -33.54,14.562 -17.16,0 -30.77,-7.191 -40.82,-21.582 -2.78,6.762 -7.15,12.051 -13.13,15.859 -5.98,3.813 -13.31,5.723 -21.97,5.723 -16.12,0 -28.43,-6.242 -36.92,-18.723 h -0.52 v 15.34 h -38.48 V 313.301 h 39 z m -93.47,132.211 c -5.81,-3.383 -10.45,-8.102 -13.91,-14.172 h -0.52 v 15.859 h -37.96 V 313.301 h 38.74 v 67.597 c 0,9.711 1.73,17.684 5.2,23.922 3.46,6.239 9.88,9.36 19.24,9.36 6.41,0 12.39,-1.469 17.94,-4.418 l 5.72,37.957 c -2.26,1.043 -4.68,1.781 -7.28,2.211 -2.6,0.429 -5.12,0.652 -7.54,0.652 -7.28,0 -13.83,-1.691 -19.63,-5.07 z m -166.92,-92.043 c -5.11,6.672 -7.67,15.73 -7.67,27.172 0,11.269 2.51,20.148 7.54,26.648 5.03,6.5 11.87,9.75 20.54,9.75 8.67,0 15.51,-3.289 20.54,-9.879 5.03,-6.59 7.54,-15.691 7.54,-27.301 0,-11.269 -2.47,-20.148 -7.41,-26.648 -4.94,-6.5 -11.74,-9.75 -20.41,-9.75 -8.67,0 -15.56,3.34 -20.67,10.008 z m 55.64,-34.707 c 9.79,5.886 17.38,14.129 22.75,24.699 5.37,10.57 8.06,22.879 8.06,36.918 0,14.211 -2.73,26.562 -8.19,37.051 -5.46,10.492 -13.09,18.629 -22.88,24.441 -9.79,5.809 -21.36,8.711 -34.71,8.711 -13.17,0 -24.74,-2.902 -34.71,-8.711 -9.97,-5.812 -17.68,-13.949 -23.14,-24.441 -5.46,-10.489 -8.19,-22.84 -8.19,-37.051 0,-14.039 2.77,-26.348 8.32,-36.918 5.55,-10.57 13.3,-18.813 23.27,-24.699 9.97,-5.891 21.54,-8.84 34.71,-8.84 13.35,0 24.92,2.949 34.71,8.84 v 0"
         style="fill:#97a2a7;fill-opacity:1;fill-rule:nonzero;stroke:none"
         transform="matrix(0.13333333,0,0,-0.13333333,0,251.37333)" />
      <path
         id="path5"
         d="m 4477.29,414.18 c 4.33,-4.848 6.76,-11.871 7.28,-21.059 h -51.74 c 2.43,18.891 11.27,28.34 26.52,28.34 7.63,0 13.61,-2.43 17.94,-7.281 z m 17.42,-58.758 c -4.85,-5.031 -9.71,-8.672 -14.56,-10.922 -4.85,-2.25 -10.05,-3.379 -15.6,-3.379 -17.16,0 -27.47,9.188 -30.94,27.559 h 87.1 c 0.17,2.082 0.3,4.121 0.39,6.109 0.09,1.992 0.13,4.121 0.13,6.371 0,14.211 -2.51,26.481 -7.54,36.789 -5.03,10.313 -12.18,18.332 -21.45,24.051 -9.27,5.719 -20.15,8.582 -32.63,8.582 -12.65,0 -23.83,-2.902 -33.54,-8.711 -9.71,-5.812 -17.25,-13.949 -22.62,-24.441 -5.37,-10.489 -8.06,-22.75 -8.06,-36.789 0,-14.039 2.82,-26.391 8.45,-37.051 5.63,-10.66 13.56,-18.942 23.79,-24.828 10.23,-5.891 22.19,-8.84 35.88,-8.84 21.32,0 39.52,7.539 54.6,22.617 l -23.4,22.883 v 0"
         style="fill:#97a2a7;fill-opacity:1;fill-rule:nonzero;stroke:none"
         transform="matrix(0.13333333,0,0,-0.13333333,0,251.37333)" />
      <path
         id="path6"
         d="m 4499.56,185.512 c -5.81,-3.383 -10.45,-8.102 -13.91,-14.172 h -0.52 v 15.859 h -37.96 V 53.3008 h 38.74 v 67.5972 c 0,9.711 1.73,17.684 5.2,23.922 3.46,6.239 9.88,9.36 19.24,9.36 6.41,0 12.39,-1.469 17.94,-4.418 l 5.72,37.957 c -2.26,1.043 -4.68,1.781 -7.28,2.211 -2.6,0.429 -5.12,0.652 -7.54,0.652 -7.28,0 -13.83,-1.691 -19.63,-5.07 z M 4375.41,154.18 c 4.33,-4.848 6.76,-11.871 7.28,-21.059 h -51.74 c 2.43,18.891 11.27,28.34 26.52,28.34 7.63,0 13.61,-2.43 17.94,-7.281 z m 17.42,-58.7581 c -4.85,-5.0313 -9.71,-8.6719 -14.56,-10.9219 -4.85,-2.25 -10.05,-3.3789 -15.6,-3.3789 -17.16,0 -27.47,9.1875 -30.94,27.5589 h 87.1 c 0.17,2.082 0.3,4.121 0.39,6.109 0.09,1.992 0.13,4.121 0.13,6.371 0,14.211 -2.51,26.481 -7.54,36.789 -5.03,10.313 -12.18,18.332 -21.45,24.051 -9.27,5.719 -20.15,8.582 -32.63,8.582 -12.65,0 -23.83,-2.902 -33.54,-8.711 -9.71,-5.812 -17.25,-13.949 -22.62,-24.441 -5.37,-10.489 -8.06,-22.75 -8.06,-36.789 0,-14.039 2.82,-26.391 8.45,-37.0512 5.63,-10.6601 13.56,-18.9414 23.79,-24.8281 10.23,-5.8906 22.19,-8.8398 35.88,-8.8398 21.32,0 39.52,7.539 54.6,22.6172 l -23.4,22.8828 z M 4247.1,86.0586 c -2.17,2.6016 -3.25,6.8516 -3.25,12.7422 v 57.9802 h 30.16 v 30.418 h -30.16 v 42.641 l -38.48,-7.801 v -34.84 h -19.76 v -30.418 h 19.76 V 89.9609 c 0,-26.6914 13.26,-40.039 39.78,-40.039 5.2,0 10.49,0.4765 15.86,1.4297 5.37,0.9492 9.71,2.2968 13,4.0273 v 30.9414 c -5.2,-2.7695 -10.66,-4.1601 -16.38,-4.1601 -4.85,0 -8.36,1.3007 -10.53,3.8984 z m -92.56,89.8324 c -7.19,9.789 -18.24,14.691 -33.15,14.691 -8.32,0 -15.73,-1.602 -22.23,-4.812 -6.5,-3.211 -11.83,-7.84 -15.99,-13.911 h -0.52 v 15.34 h -38.48 V 53.3008 h 39 V 129.48 c 0,4.508 0.69,8.879 2.08,13.129 1.39,4.25 3.77,7.762 7.15,10.532 3.38,2.769 7.93,4.16 13.65,4.16 7.63,0 12.91,-2.469 15.86,-7.41 2.95,-4.942 4.42,-11.743 4.42,-20.411 V 53.3008 h 39 V 136.5 c 0,16.469 -3.6,29.602 -10.79,39.391 z M 3972.68,154.18 c 4.33,-4.848 6.76,-11.871 7.28,-21.059 h -51.74 c 2.42,18.891 11.26,28.34 26.52,28.34 7.62,0 13.6,-2.43 17.94,-7.281 z m 17.42,-58.7581 c -4.86,-5.0313 -9.71,-8.6719 -14.56,-10.9219 -4.86,-2.25 -10.06,-3.3789 -15.6,-3.3789 -17.16,0 -27.48,9.1875 -30.94,27.5589 h 87.1 c 0.17,2.082 0.3,4.121 0.39,6.109 0.08,1.992 0.13,4.121 0.13,6.371 0,14.211 -2.52,26.481 -7.54,36.789 -5.03,10.313 -12.18,18.332 -21.45,24.051 -9.28,5.719 -20.15,8.582 -32.63,8.582 -12.66,0 -23.84,-2.902 -33.54,-8.711 -9.71,-5.812 -17.25,-13.949 -22.62,-24.441 -5.38,-10.489 -8.06,-22.75 -8.06,-36.789 0,-14.039 2.81,-26.391 8.45,-37.0512 5.63,-10.6601 13.56,-18.9414 23.79,-24.8281 10.22,-5.8906 22.18,-8.8398 35.88,-8.8398 21.32,0 39.52,7.539 54.6,22.6172 l -23.4,22.8828 z m -167.05,-2.211 c -5.64,-3.5507 -12.09,-5.332 -19.37,-5.332 -8.84,0 -16.56,2.3399 -23.14,7.0195 -6.59,4.6797 -11.75,11.3126 -15.47,19.8906 -3.73,8.582 -5.59,18.59 -5.59,30.031 0,11.442 1.86,21.45 5.59,30.032 3.72,8.578 8.88,15.207 15.47,19.886 6.58,4.684 14.3,7.024 23.14,7.024 14.04,0 25.39,-7.114 34.06,-21.321 l 34.84,23.141 c -15.6,24.09 -38.22,36.137 -67.86,36.137 -17.34,0 -32.63,-4.071 -45.89,-12.219 -13.26,-8.148 -23.62,-19.371 -31.07,-33.668 -7.46,-14.301 -11.18,-30.812 -11.18,-49.531 0,-18.371 3.68,-34.672 11.05,-48.8791 7.36,-14.211 17.55,-25.3516 30.55,-33.4102 13,-8.0625 27.9,-12.0898 44.72,-12.0898 14.38,0 27.56,3.1172 39.52,9.3594 11.96,6.2382 22.18,15.1679 30.68,26.7773 l -33.8,24.1794 c -5.2,-7.797 -10.62,-13.4763 -16.25,-17.0271 z M 3578.78,143 V 98.5391 C 3570.46,89.1797 3561.7,84.5 3552.52,84.5 c -8.5,0 -15,3.1211 -19.5,9.3594 -4.51,6.2426 -6.76,15.2496 -6.76,27.0386 0,11.793 2.25,20.801 6.76,27.043 4.5,6.239 10.92,9.36 19.24,9.36 9.7,0 18.54,-4.77 26.52,-14.301 v 0 z M 3535.36,0.261719 c 29.46,1.207031 50.52,7.410161 63.18,18.589881 12.65,11.1797 18.98,27.5976 18.98,49.2695 V 187.199 h -38.22 v -14.558 h -0.26 c -4.34,5.89 -9.8,10.359 -16.38,13.39 -6.59,3.028 -13.7,4.551 -21.32,4.551 -10.58,0 -19.85,-2.863 -27.82,-8.582 -7.98,-5.719 -14.13,-13.781 -18.46,-24.18 -4.34,-10.398 -6.5,-22.621 -6.5,-36.66 0,-13.691 2.12,-25.6483 6.37,-35.8787 4.24,-10.2305 10.27,-18.1094 18.07,-23.6602 7.8,-5.5508 16.98,-8.3203 27.56,-8.3203 7.62,0 14.69,1.4687 21.19,4.418 6.5,2.9531 12,7.2812 16.51,13 h 0.26 v -8.0586 c 0,-7.2813 -1.43,-13.3907 -4.29,-18.3282 -2.86,-4.9414 -7.76,-8.7109 -14.69,-11.3125 -6.94,-2.5976 -16.47,-4.1601 -28.6,-4.6797 L 3524.7,27.8203 3528.86,0 l 6.5,0.261719 z M 3450.73,175.891 c -7.19,9.789 -18.24,14.691 -33.15,14.691 -8.32,0 -15.73,-1.602 -22.23,-4.812 -6.5,-3.211 -11.83,-7.84 -15.99,-13.911 h -0.52 v 15.34 h -38.48 V 53.3008 h 39 V 129.48 c 0,4.508 0.69,8.879 2.08,13.129 1.39,4.25 3.77,7.762 7.15,10.532 3.38,2.769 7.93,4.16 13.65,4.16 7.63,0 12.91,-2.469 15.86,-7.41 2.95,-4.942 4.42,-11.743 4.42,-20.411 V 53.3008 h 39 V 136.5 c 0,16.469 -3.6,29.602 -10.79,39.391 z m -183.95,11.308 V 53.3008 h 39 V 187.199 h -39 z m 3.25,54.731 c -4.42,-4.071 -6.63,-9.231 -6.63,-15.469 0,-6.07 2.21,-11.141 6.63,-15.211 4.42,-4.07 9.84,-6.109 16.25,-6.109 6.41,0 11.87,2.039 16.38,6.109 4.51,4.07 6.76,9.141 6.76,15.211 0,6.238 -2.25,11.398 -6.76,15.469 -4.51,4.07 -9.97,6.109 -16.38,6.109 -6.41,0 -11.83,-2.039 -16.25,-6.109 z M 3213.61,86.0586 c -2.17,2.6016 -3.25,6.8516 -3.25,12.7422 v 57.9802 h 30.16 v 30.418 h -30.16 v 42.641 l -38.48,-7.801 v -34.84 h -19.76 v -30.418 h 19.76 V 89.9609 c 0,-26.6914 13.26,-40.039 39.78,-40.039 5.2,0 10.49,0.4765 15.86,1.4297 5.37,0.9492 9.71,2.2968 13,4.0273 v 30.9414 c -5.2,-2.7695 -10.66,-4.1601 -16.38,-4.1601 -4.85,0 -8.36,1.3007 -10.53,3.8984 z M 3010.94,187.199 v -81.117 c 0,-17.6836 5.42,-31.4609 16.25,-41.3437 10.83,-9.8789 25.78,-14.8164 44.85,-14.8164 19.07,0 33.8,4.9375 44.2,14.8164 10.4,9.8828 15.6,23.75 15.6,41.6017 v 80.859 h -39 v -79.301 c 0,-16.1167 -7.11,-24.1792 -21.32,-24.1792 -14.39,0 -21.58,7.9726 -21.58,23.9222 v 79.558 h -39 z M 2906.81,86.8398 c -4.24,2.4297 -8.44,6.0704 -12.61,10.9219 V 143.52 c 4.34,5.031 8.63,8.621 12.87,10.789 4.25,2.171 8.8,3.25 13.65,3.25 17.34,0 26.01,-12.387 26.01,-37.18 0,-12.129 -2.13,-21.3595 -6.38,-27.6876 -4.24,-6.332 -10.7,-9.4922 -19.37,-9.4922 -5.2,0 -9.92,1.211 -14.17,3.6406 z m 3.64,98.9302 c -6.32,-3.211 -11.91,-7.758 -16.77,-13.649 h -0.52 v 15.078 h -37.7 V 0 l 38.74,8.58203 V 66.8203 h 0.52 c 4.34,-5.1992 9.62,-9.3203 15.86,-12.3515 6.24,-3.0274 13.18,-4.5469 20.81,-4.5469 10.74,0 20.06,2.8594 27.94,8.5781 7.89,5.7188 14.04,13.9102 18.46,24.5703 4.42,10.6602 6.63,23.2697 6.63,37.8277 0,14.563 -2.21,27.043 -6.63,37.442 -4.42,10.398 -10.57,18.371 -18.46,23.922 -7.88,5.547 -17.03,8.32 -27.42,8.32 -7.98,0 -15.13,-1.602 -21.46,-4.812 z M 2665.15,53.3008 V 130.52 c 0,4.332 0.65,8.539 1.95,12.609 1.3,4.07 3.46,7.453 6.5,10.141 3.03,2.691 7.23,4.031 12.61,4.031 7.1,0 12,-2.469 14.69,-7.41 2.68,-4.942 4.03,-11.481 4.03,-19.629 V 53.3008 h 39 V 130.52 c 0,4.332 0.6,8.539 1.82,12.609 1.21,4.07 3.38,7.453 6.5,10.141 3.12,2.691 7.36,4.031 12.74,4.031 7.1,0 11.96,-2.469 14.56,-7.41 2.6,-4.942 3.9,-11.481 3.9,-19.629 V 53.3008 h 39.26 V 136.5 c 0,16.641 -3.73,29.809 -11.18,39.52 -7.46,9.71 -18.64,14.562 -33.54,14.562 -17.16,0 -30.77,-7.191 -40.82,-21.582 -2.78,6.762 -7.15,12.051 -13.13,15.859 -5.98,3.813 -13.31,5.723 -21.97,5.723 -16.12,0 -28.43,-6.242 -36.92,-18.723 h -0.52 v 15.34 h -38.48 V 53.3008 h 39 z m -153.27,40.168 c -5.12,6.6722 -7.67,15.7302 -7.67,27.1722 0,11.269 2.51,20.148 7.54,26.648 5.02,6.5 11.87,9.75 20.54,9.75 8.66,0 15.51,-3.289 20.54,-9.879 5.02,-6.59 7.54,-15.691 7.54,-27.301 0,-11.269 -2.47,-20.1481 -7.41,-26.6481 -4.94,-6.5 -11.75,-9.75 -20.41,-9.75 -8.67,0 -15.56,3.3399 -20.67,10.0079 z m 55.64,-34.7071 c 9.79,5.8867 17.37,14.1289 22.75,24.6992 5.37,10.5704 8.06,22.8791 8.06,36.9181 0,14.211 -2.73,26.562 -8.19,37.051 -5.46,10.492 -13.09,18.629 -22.88,24.441 -9.8,5.809 -21.37,8.711 -34.71,8.711 -13.18,0 -24.75,-2.902 -34.71,-8.711 -9.97,-5.812 -17.68,-13.949 -23.14,-24.441 -5.46,-10.489 -8.19,-22.84 -8.19,-37.051 0,-14.039 2.77,-26.3477 8.32,-36.9181 5.54,-10.5703 13.3,-18.8125 23.27,-24.6992 9.96,-5.8906 21.53,-8.8398 34.71,-8.8398 13.34,0 24.91,2.9492 34.71,8.8398 z m -168.74,34.4492 c -5.63,-3.5507 -12.09,-5.332 -19.37,-5.332 -8.84,0 -16.56,2.3399 -23.14,7.0195 -6.59,4.6797 -11.74,11.3126 -15.47,19.8906 -3.73,8.582 -5.59,18.59 -5.59,30.031 0,11.442 1.86,21.45 5.59,30.032 3.73,8.578 8.88,15.207 15.47,19.886 6.58,4.684 14.3,7.024 23.14,7.024 14.04,0 25.39,-7.114 34.06,-21.321 l 34.84,23.141 c -15.6,24.09 -38.22,36.137 -67.86,36.137 -17.33,0 -32.63,-4.071 -45.89,-12.219 -13.26,-8.148 -23.62,-19.371 -31.07,-33.668 -7.45,-14.301 -11.18,-30.812 -11.18,-49.531 0,-18.371 3.68,-34.672 11.05,-48.8791 7.37,-14.211 17.55,-25.3516 30.55,-33.4102 13,-8.0625 27.91,-12.0898 44.72,-12.0898 14.39,0 27.56,3.1172 39.52,9.3594 11.96,6.2382 22.19,15.1679 30.68,26.7773 l -33.8,24.1794 c -5.2,-7.797 -10.62,-13.4763 -16.25,-17.0271 v 0"
         style="fill:#97a2a7;fill-opacity:1;fill-rule:nonzero;stroke:none"
         transform="matrix(0.13333333,0,0,-0.13333333,0,251.37333)" />
      <path
         id="path7"
         d="M 69.0117,960.977 H 209.246 v 351.113 h 1.606 L 409.586,960.977 H 562.645 V 1524.33 H 422.406 v -347.16 h -1.601 L 222.07,1524.33 H 69.0117 Z m 593.8043,0 H 811.867 V 1192.95 H 1008.2 V 960.977 h 149.05 V 1524.33 H 1008.2 V 1319.19 H 811.867 v 205.14 H 662.816 Z m 744.464,445.793 h 118.6 c 20.83,0 38.58,-4.88 53.28,-14.6 14.69,-9.74 22.04,-25.12 22.04,-46.15 0,-21.58 -5.88,-38.02 -17.63,-49.31 -11.75,-11.33 -28.84,-16.97 -51.28,-16.97 H 1407.28 Z M 1258.22,960.977 h 149.06 v 205.143 h 112.99 c 17.63,0 31.65,-3.3 42.06,-9.86 10.42,-6.59 18.57,-15.39 24.45,-26.44 5.87,-11.04 9.88,-23.41 12.02,-37.08 2.13,-13.68 3.73,-27.61 4.81,-41.81 0.53,-4.22 1.06,-10.26 1.6,-18.15 0.53,-7.89 1.33,-16.45 2.41,-25.65 1.06,-9.208 2.66,-18.017 4.8,-26.427 2.13,-8.422 4.81,-14.992 8.02,-19.726 h 147.45 c -4.81,5.253 -8.82,13.671 -12.02,25.25 -3.21,11.566 -5.61,23.933 -7.22,37.083 -1.6,13.14 -2.67,25.77 -3.2,37.87 -0.54,12.1 -1.08,21.03 -1.6,26.83 -1.08,13.14 -3.21,26.95 -6.42,41.43 -3.2,14.45 -8.01,28 -14.42,40.63 -6.41,12.62 -14.7,23.66 -24.84,33.13 -10.16,9.47 -22.71,16.05 -37.67,19.73 v 1.58 c 30.46,11.56 53.02,30.37 67.71,56.42 14.69,26.03 22.05,54.3 22.05,84.81 0,28.4 -5.75,52.6 -17.24,72.59 -11.49,19.99 -26.57,36.42 -45.27,49.32 -18.7,12.87 -40.07,22.21 -64.11,28 -24.04,5.79 -48.62,8.68 -73.72,8.68 h -291.7 V 960.977"
         style="fill:#0b3b6a;fill-opacity:1;fill-rule:nonzero;stroke:none"
         transform="matrix(0.13333333,0,0,-0.13333333,0,251.37333)" />
      <path
         id="path8"
         d="m 3108.88,962.227 h 149.09 v 217.043 h 235.67 v 113.64 h -235.67 v 115.24 h 272.55 v 117.59 H 3108.88 V 962.227"
         style="fill:#0b3b6a;fill-opacity:1;fill-rule:nonzero;stroke:none"
         transform="matrix(0.13333333,0,0,-0.13333333,0,251.37333)" />
      <path
         id="path9"
         d="m 4037.74,962.227 -214.02,563.513 h -151.5 L 3458.2,962.227 h 153.1 l 36.07,101.023 h 199.59 l 35.27,-101.023 z m -226.05,209.933 h -129.85 l 64.93,197.3 h 1.6 l 63.32,-197.3"
         style="fill:#0b3b6a;fill-opacity:1;fill-rule:nonzero;stroke:none"
         transform="matrix(0.13333333,0,0,-0.13333333,0,251.37333)" />
      <path
         id="path10"
         d="m 4530.81,1525.74 h -149.09 v -339.38 c 0,-36.3 -7.49,-63.66 -22.44,-82.07 -14.97,-18.43 -40.88,-27.63 -77.75,-27.63 -36.87,0 -62.8,9.2 -77.76,27.63 -14.96,18.41 -22.44,45.77 -22.44,82.07 v 339.38 h -149.09 v -330.69 c 0,-81.57 19.9,-142.73 59.71,-183.5 39.81,-40.777 103,-61.159 189.58,-61.159 86.57,0 149.75,20.382 189.57,61.159 39.8,40.77 59.71,101.93 59.71,183.5 v 330.69"
         style="fill:#0b3b6a;fill-opacity:1;fill-rule:nonzero;stroke:none"
         transform="matrix(0.13333333,0,0,-0.13333333,0,251.37333)" />
      <path
         id="path11"
         d="m 3747.36,1748.49 c -33.8,0 -61.3,-26.9 -61.3,-59.96 0,-33.07 27.5,-59.97 61.3,-59.97 33.8,0 61.29,26.9 61.29,59.97 0,33.06 -27.49,59.96 -61.29,59.96 z m -844.11,-262.83 -24.57,43.47 323.61,182.95 h 436.4 c 10.95,49.31 55.52,86.35 108.67,86.35 61.33,0 111.23,-49.3 111.23,-109.9 0,-60.6 -49.9,-109.91 -111.23,-109.91 -52.13,0 -96,35.62 -107.99,83.52 H 3215.43 Z M 908.629,855.109 c -33.801,0 -61.293,-26.89 -61.293,-59.961 0,-33.058 27.492,-59.957 61.293,-59.957 33.793,0 61.289,26.899 61.289,59.957 0,33.071 -27.496,59.961 -61.289,59.961 z m 0,-169.859 c -61.332,0 -111.234,49.309 -111.234,109.898 0,60.602 49.902,109.907 111.234,109.907 52.586,0 96.771,-36.235 108.291,-84.774 h 607.93 l 321.11,181.549 24.58,-43.471 L 1637.99,770.34 H 1017 c -11.41,-48.692 -55.672,-85.09 -108.371,-85.09"
         style="fill:#96a0a5;fill-opacity:1;fill-rule:nonzero;stroke:none"
         transform="matrix(0.13333333,0,0,-0.13333333,0,251.37333)" />
      <path
         id="path12"
         d="m 2043.75,1441.03 -24.68,43.42 387.22,220.1 24.67,-43.41 z m 787.05,-418.51 h -49.94 v 440.22 h 49.94 z m -424.51,-241.809 -387.22,220.099 24.68,43.42 387.21,-220.101 z m -435.37,207.75 447.7,-254.5 447.71,254.5 v 508.329 l -447.71,254.51 -447.7,-254.51 z m 447.7,-311.941 -497.64,282.886 v 566.444 l 497.64,282.89 497.65,-282.89 V 959.406 L 2418.62,676.52"
         style="fill:#00a880;fill-opacity:1;fill-rule:nonzero;stroke:none"
         transform="matrix(0.13333333,0,0,-0.13333333,0,251.37333)" />
    </g>
  </g>
</svg>
